<?xml version="1.0" standalone="no"?>
<!DOCTYPE svg PUBLIC "-//W3C//DTD SVG 20010904//EN"
 "http://www.w3.org/TR/2001/REC-SVG-20010904/DTD/svg10.dtd">
<svg version="1.0" xmlns="http://www.w3.org/2000/svg"
 width="953.000000pt" height="1280.000000pt" viewBox="0 0 953.000000 1280.000000"
 preserveAspectRatio="xMidYMid meet">
<metadata>
Created by potrace 1.15, written by Peter Selinger 2001-2017
</metadata>
<g transform="translate(0.000000,1280.000000) scale(0.100000,-0.100000)"
fill="#ffe400" stroke="none">
<path d="M6111 12786 c-47 -26 -66 -103 -40 -160 12 -25 63 -56 94 -56 48 0
115 67 115 116 0 41 -22 85 -51 99 -35 18 -86 19 -118 1z"/>
<path d="M3664 12494 c-11 -45 29 -210 48 -198 22 14 -12 224 -36 224 -3 0 -9
-11 -12 -26z"/>
<path d="M6123 12420 c-41 -24 -55 -52 -51 -98 2 -25 8 -38 20 -40 25 -5 138
97 138 124 0 38 -56 46 -107 14z"/>
<path d="M7021 12354 c-44 -56 -16 -144 45 -144 22 0 25 3 20 23 -3 12 -6 50
-6 85 0 55 -2 62 -19 62 -11 0 -29 -12 -40 -26z"/>
<path d="M6774 12336 c-38 -17 -44 -31 -44 -112 0 -56 4 -68 25 -89 29 -30 73
-32 131 -6 113 52 112 166 -3 205 -56 19 -69 19 -109 2z"/>
<path d="M5423 12298 c-58 -42 -81 -109 -48 -141 29 -29 80 -39 118 -24 60 26
85 128 41 171 -22 23 -74 20 -111 -6z"/>
<path d="M3974 12235 c-40 -90 -26 -236 36 -371 31 -68 49 -78 61 -33 18 62 8
138 -35 290 l-44 154 -18 -40z"/>
<path d="M4197 12192 c-25 -103 -26 -124 -15 -169 12 -48 22 -54 32 -20 35
121 37 138 26 192 -6 30 -15 57 -19 59 -4 3 -15 -25 -24 -62z"/>
<path d="M5923 12079 c-27 -14 -63 -96 -63 -142 0 -42 31 -84 76 -103 49 -20
69 -17 107 16 65 57 71 155 12 210 -27 26 -98 36 -132 19z"/>
<path d="M6458 12053 c-32 -8 -33 -44 -3 -70 39 -34 60 -27 60 21 0 40 -19 57
-57 49z"/>
<path d="M6806 11984 c-31 -30 -14 -84 26 -84 36 0 52 72 19 90 -25 13 -27 13
-45 -6z"/>
<path d="M4950 11655 c-19 -23 -8 -50 23 -53 23 -3 27 0 27 20 0 23 -16 48
-31 48 -4 0 -12 -7 -19 -15z"/>
<path d="M4033 11610 c-50 -20 -64 -64 -88 -275 -24 -218 -45 -274 -99 -275
-11 0 -29 9 -41 20 l-20 19 3 -74 c5 -98 -2 -127 -31 -123 -14 2 -30 18 -44
47 -36 72 -51 83 -98 76 -93 -16 -165 -70 -201 -153 -9 -20 -29 -112 -45 -204
-28 -162 -56 -247 -91 -275 -7 -6 -41 -13 -76 -15 l-62 -4 6 156 c5 112 3 166
-5 193 -7 20 -16 35 -20 32 -5 -2 -16 -33 -27 -67 -28 -97 -23 -238 15 -433
52 -263 57 -412 18 -520 -34 -91 -77 -172 -107 -200 -52 -49 -90 -134 -90
-203 0 -72 21 -155 59 -230 27 -53 242 -344 275 -371 7 -6 45 -17 85 -24 40
-8 77 -19 82 -24 6 -6 -2 -27 -25 -59 -81 -113 -179 -278 -208 -346 -39 -91
-48 -186 -24 -224 22 -33 69 -52 134 -55 61 -3 75 7 109 78 28 61 49 75 69 48
36 -49 6 -130 -76 -210 -39 -38 -90 -117 -90 -139 0 -1 26 1 57 4 39 5 60 12
70 26 7 10 33 46 57 79 24 33 51 76 61 95 10 19 35 54 56 77 21 22 47 59 58
82 24 46 164 171 227 201 71 35 111 25 142 -36 7 -12 25 -72 42 -133 34 -125
54 -168 103 -223 30 -33 40 -38 80 -38 66 0 93 -14 117 -59 31 -61 27 -81 -15
-81 l-35 0 0 -47 c0 -56 26 -118 64 -152 18 -17 41 -26 78 -29 84 -6 117 7
155 62 54 78 42 128 -48 206 -51 44 -48 59 15 88 62 29 153 30 189 2 36 -28
43 -57 21 -81 -16 -17 -16 -22 -4 -29 8 -6 29 -10 47 -10 21 0 46 -12 75 -34
24 -19 80 -60 124 -91 94 -65 144 -75 176 -35 39 48 4 120 -58 120 -62 0 -94
34 -113 122 -27 118 42 182 314 298 107 46 181 98 197 140 5 14 14 48 19 75 5
28 16 66 25 86 14 32 14 59 6 225 -6 104 -13 199 -17 211 -6 17 5 34 54 87 51
54 61 71 61 100 0 29 5 38 30 51 37 19 38 37 3 63 l-26 19 58 27 c31 14 61 26
64 26 15 0 60 56 75 92 31 72 16 133 -86 353 -52 113 -98 233 -98 258 0 4 15
-3 33 -16 76 -57 146 -75 221 -56 67 17 78 39 80 152 1 128 -17 175 -84 211
-40 22 -52 34 -61 66 -17 56 -6 86 40 110 72 36 87 80 51 150 -37 73 -97 91
-142 43 -37 -40 -49 -67 -58 -136 -10 -65 3 -102 57 -175 l25 -33 -80 -87
c-43 -48 -87 -89 -97 -90 -26 -6 -39 14 -37 53 4 48 -15 112 -34 119 -8 3 -41
-8 -73 -26 -31 -17 -64 -29 -72 -26 -8 3 -21 26 -28 49 l-13 44 51 46 c28 25
51 53 51 62 0 27 -49 33 -89 11 -46 -25 -71 -62 -82 -119 -5 -27 -11 -50 -13
-52 -14 -14 -52 27 -78 83 -24 51 -30 78 -30 127 l0 62 -44 0 c-49 0 -50 -1
-29 -52 12 -29 13 -43 4 -71 -11 -33 -13 -34 -52 -29 -51 7 -76 29 -57 52 8 9
26 23 42 31 30 16 37 34 13 34 -26 0 -77 -30 -122 -71 -25 -23 -56 -40 -80
-45 -45 -8 -70 -20 -98 -45 -11 -10 -50 -25 -85 -32 -36 -8 -79 -21 -96 -30
-28 -14 -34 -15 -44 -2 -6 8 -9 23 -5 34 7 23 -19 41 -57 41 -67 0 -222 125
-247 199 -15 47 -14 107 4 140 15 31 76 64 135 76 61 13 71 22 59 53 -17 45
-39 62 -81 62 -47 0 -78 -15 -142 -68 -67 -55 -86 -88 -86 -144 0 -51 -16 -68
-63 -68 -37 0 -56 30 -66 106 -6 50 -22 95 -56 164 -44 89 -46 99 -42 158 4
54 17 90 85 230 87 181 102 220 102 264 0 44 -16 66 -58 78 -43 12 -50 12 -79
0z m602 -1534 c20 -37 63 -61 130 -72 59 -10 73 -20 85 -62 11 -40 14 -102 4
-102 -10 0 -48 22 -100 57 -44 29 -54 33 -78 23 -30 -11 -115 -14 -140 -4 -20
8 -20 44 -1 91 17 41 62 103 74 103 4 0 16 -15 26 -34z m-1036 -1602 c32 -23
51 -74 51 -138 0 -81 -12 -106 -52 -106 -19 0 -41 9 -55 22 -22 21 -23 21 -43
3 -24 -21 -22 -23 -48 37 -11 25 -39 67 -62 91 l-41 45 53 16 c29 9 67 23 83
30 41 20 86 19 114 0z"/>
<path d="M3010 11528 c0 -8 7 -36 16 -61 22 -64 14 -81 -32 -74 l-35 6 -36
-74 c-44 -93 -40 -119 22 -158 63 -40 113 -35 138 13 26 51 18 170 -20 274
-25 72 -53 110 -53 74z"/>
<path d="M6614 11435 c-13 -14 -38 -25 -70 -29 -69 -11 -114 -47 -114 -92 0
-47 23 -88 63 -113 65 -40 132 -21 157 43 14 38 23 141 16 180 -8 41 -22 44
-52 11z"/>
<path d="M5620 11404 c-45 -38 -39 -75 14 -89 33 -8 40 -6 52 10 17 23 18 77
2 93 -18 18 -33 15 -68 -14z"/>
<path d="M4570 11323 c-50 -79 -51 -113 -4 -113 30 0 54 48 54 109 0 58 -16
59 -50 4z"/>
<path d="M3357 11318 c9 -35 21 -46 48 -40 34 6 31 15 -14 40 l-39 22 5 -22z"/>
<path d="M6005 11177 c-30 -30 -35 -41 -35 -83 0 -98 72 -184 153 -184 55 0
97 45 126 132 33 99 29 109 -52 136 -38 12 -88 25 -112 29 -41 5 -47 3 -80
-30z"/>
<path d="M5386 11048 c-20 -28 -21 -87 -2 -94 8 -3 31 2 50 11 47 23 59 61 26
87 -30 24 -56 23 -74 -4z"/>
<path d="M5640 10960 c-27 -27 -25 -58 4 -71 31 -14 63 2 72 36 12 50 -38 73
-76 35z"/>
<path d="M5225 10826 c-9 -14 -25 -48 -36 -76 l-20 -52 30 21 c39 28 80 131
51 131 -5 0 -17 -11 -25 -24z"/>
<path d="M5846 10774 c-24 -23 -16 -48 17 -52 23 -3 27 0 27 21 0 36 -23 52
-44 31z"/>
<path d="M5049 10713 c-18 -48 -22 -118 -9 -143 l13 -24 18 23 c13 16 19 39
19 75 0 91 -20 124 -41 69z"/>
<path d="M8329 10664 c-10 -12 -14 -42 -14 -98 l0 -81 72 -3 c62 -2 75 0 93
18 11 11 20 29 20 40 0 77 -131 172 -171 124z"/>
<path d="M4721 10652 c-12 -22 3 -42 31 -42 20 0 23 12 8 41 -13 24 -26 24
-39 1z"/>
<path d="M6205 10216 c-22 -29 -24 -37 -15 -62 6 -16 17 -32 23 -36 41 -26
107 18 107 72 0 26 -6 33 -35 46 -47 19 -50 19 -80 -20z"/>
<path d="M7498 10229 c-18 -10 -24 -45 -10 -65 12 -18 52 -36 68 -30 23 9 16
50 -13 78 -22 21 -32 25 -45 17z"/>
<path d="M2502 10208 c17 -26 58 -55 58 -41 0 15 -47 63 -61 63 -8 0 -7 -7 3
-22z"/>
<path d="M6522 10164 c-56 -39 10 -174 86 -174 25 0 52 64 52 125 0 42 -1 44
-37 54 -52 15 -75 14 -101 -5z"/>
<path d="M8684 10030 c-49 -20 -37 -56 34 -101 77 -49 132 -33 132 37 0 63
-13 74 -83 73 -34 0 -72 -4 -83 -9z"/>
<path d="M6507 9916 c-7 -17 11 -36 35 -36 19 0 22 8 12 34 -8 20 -40 21 -47
2z"/>
<path d="M8455 9810 c-9 -10 -20 -39 -22 -63 -5 -38 -2 -47 18 -61 55 -38 114
-11 114 52 0 73 -68 118 -110 72z"/>
<path d="M2709 9711 c-43 -43 -49 -71 -19 -101 44 -44 117 -33 151 24 38 62
14 116 -53 116 -34 0 -47 -6 -79 -39z"/>
<path d="M2102 9588 c-27 -27 -7 -78 29 -78 11 0 20 11 24 30 10 47 -24 77
-53 48z"/>
<path d="M6074 9401 c-35 -21 -59 -76 -48 -107 4 -10 16 -29 28 -42 18 -21 21
-36 21 -127 0 -117 11 -140 72 -151 97 -18 243 82 243 166 0 40 -26 68 -99
104 -78 40 -85 47 -102 104 -7 23 -17 46 -23 51 -25 21 -61 21 -92 2z"/>
<path d="M7301 9264 c-21 -15 -23 -23 -19 -73 2 -33 14 -78 28 -106 35 -68 79
-90 184 -90 95 0 107 10 87 76 -16 52 -83 120 -172 172 -72 42 -76 43 -108 21z"/>
<path d="M2454 9188 c-56 -58 -64 -77 -64 -145 0 -73 22 -112 85 -148 137 -81
284 23 260 184 -8 55 -24 88 -60 121 -23 21 -38 25 -103 28 l-77 4 -41 -44z"/>
<path d="M7976 8759 c-65 -65 -76 -72 -126 -80 -30 -5 -59 -9 -65 -9 -5 -1 2
-7 17 -16 37 -20 43 -53 29 -156 -17 -120 -12 -126 82 -82 50 22 67 25 154 22
152 -5 189 22 200 141 6 67 -7 122 -43 177 -35 53 -71 74 -130 74 -46 0 -50
-3 -118 -71z"/>
<path d="M6735 8801 c-87 -22 -156 -81 -175 -149 -24 -88 -6 -120 91 -167 45
-21 71 -42 90 -69 50 -74 123 -85 173 -25 32 37 32 56 4 111 -19 36 -22 56
-20 126 2 89 -13 143 -45 160 -28 15 -85 21 -118 13z"/>
<path d="M2503 8550 c-53 -22 -71 -123 -28 -165 35 -36 96 -35 124 1 34 43 28
99 -13 140 -35 35 -46 39 -83 24z"/>
<path d="M652 8428 c-16 -16 -15 -50 1 -72 27 -36 81 23 63 69 -7 18 -47 20
-64 3z"/>
<path d="M6234 8393 c-55 -10 -75 -82 -34 -123 41 -41 121 -11 135 51 11 46
-41 83 -101 72z"/>
<path d="M6975 8368 c-33 -17 -45 -40 -45 -81 0 -86 113 -142 169 -83 45 47
36 141 -15 165 -31 14 -83 14 -109 -1z"/>
<path d="M8380 8347 c-66 -24 -110 -44 -110 -52 0 -2 9 -19 19 -37 11 -18 27
-65 36 -103 45 -199 159 -217 246 -39 25 49 32 79 33 124 1 66 -16 93 -71 116
-45 19 -78 17 -153 -9z"/>
<path d="M2377 8209 c-39 -23 -41 -86 -3 -111 20 -14 63 -8 79 10 20 22 21 45
6 75 -20 38 -47 46 -82 26z"/>
<path d="M7323 8116 c-37 -27 -60 -132 -43 -195 16 -60 53 -98 113 -116 182
-54 252 40 144 196 -70 102 -162 151 -214 115z"/>
<path d="M2965 8059 c-19 -17 -35 -37 -35 -43 0 -18 31 -44 69 -57 28 -10 35
-9 52 7 30 31 35 78 10 103 -29 29 -54 26 -96 -10z"/>
<path d="M1025 7994 c-30 -31 0 -86 39 -71 28 11 15 87 -15 87 -4 0 -15 -7
-24 -16z"/>
<path d="M3645 7845 c-23 -8 -60 -36 -87 -65 -37 -39 -55 -50 -78 -50 -27 0
-30 -3 -30 -32 0 -18 -9 -78 -20 -133 -11 -55 -23 -152 -27 -216 l-6 -117 -51
-23 c-76 -36 -148 -114 -195 -211 -60 -126 -75 -200 -75 -358 0 -166 14 -234
60 -294 83 -109 321 -162 510 -115 54 14 68 30 144 167 134 241 153 378 68
486 -19 23 -32 52 -32 70 -2 46 -13 56 -61 56 -41 0 -74 16 -169 83 -26 18
-12 37 25 37 17 0 53 10 80 22 41 17 62 36 111 100 52 69 104 118 157 148 10
5 16 30 18 71 4 76 27 178 50 227 10 21 29 40 50 48 33 14 43 37 22 49 -6 4
-21 -3 -34 -15 l-23 -21 -87 36 c-151 62 -244 77 -320 50z m-174 -725 c24 -16
50 -30 57 -30 6 0 12 -4 12 -9 0 -10 -34 -21 -70 -21 -35 0 -170 33 -170 43 0
15 66 47 96 47 18 0 50 -13 75 -30z"/>
<path d="M8520 7808 c-41 -22 -70 -75 -70 -130 0 -41 5 -54 29 -79 24 -24 38
-29 75 -29 66 0 107 38 113 106 5 51 -10 97 -39 121 -22 19 -81 24 -108 11z"/>
<path d="M7755 7788 c-96 -53 -148 -185 -92 -235 85 -77 220 -44 248 60 31
116 -66 225 -156 175z"/>
<path d="M6690 7495 l-25 -14 30 -1 c39 0 75 10 75 21 0 14 -52 10 -80 -6z"/>
<path d="M4610 7442 c0 -38 26 -72 55 -72 18 0 26 8 35 35 17 52 8 65 -45 65
-43 0 -45 -1 -45 -28z"/>
<path d="M27 7410 c-51 -40 -29 -92 40 -94 32 -1 39 3 51 28 33 67 -31 113
-91 66z"/>
<path d="M4926 7401 c-3 -4 1 -17 9 -27 13 -18 15 -18 31 -2 9 9 13 21 10 27
-8 13 -43 15 -50 2z"/>
<path d="M315 7260 c-9 -15 4 -30 26 -30 12 0 19 7 19 20 0 21 -33 29 -45 10z"/>
<path d="M4811 7143 c-70 -34 -157 -122 -200 -202 -39 -74 -51 -169 -32 -247
17 -67 75 -133 150 -169 34 -16 61 -31 61 -34 0 -3 -38 -40 -84 -81 -47 -41
-84 -76 -83 -77 1 -1 45 5 97 13 68 11 130 13 218 9 121 -6 125 -6 179 21 66
34 92 66 167 206 31 59 79 131 106 161 28 30 50 57 50 60 0 3 -29 -7 -65 -24
-84 -38 -122 -38 -136 -1 -13 34 -4 130 22 223 22 78 22 82 11 75 -5 -3 -28
-9 -51 -15 -41 -9 -44 -8 -107 41 -75 57 -105 68 -189 68 -44 -1 -75 -8 -114
-27z"/>
<path d="M8433 7136 c-91 -18 -96 -24 -91 -125 6 -133 53 -202 128 -186 40 9
106 69 140 129 55 95 32 165 -61 185 -27 6 -51 11 -52 10 -1 -1 -30 -6 -64
-13z"/>
<path d="M5634 6941 c-73 -34 -91 -54 -42 -45 48 9 91 31 106 54 16 26 8 25
-64 -9z"/>
<path d="M1485 6780 c-35 -14 -47 -36 -40 -72 15 -69 74 -99 115 -58 54 54 -6
158 -75 130z"/>
<path d="M2450 6731 c0 -20 13 -41 25 -41 15 0 28 27 19 41 -7 12 -44 12 -44
0z"/>
<path d="M8973 6555 c-45 -19 -73 -51 -73 -83 0 -45 92 -128 182 -163 151 -60
267 -61 356 -5 22 14 52 28 66 32 22 5 26 12 26 44 0 33 -3 38 -27 43 -28 5
-141 47 -306 112 -96 38 -168 45 -224 20z"/>
<path d="M733 6449 c-94 -46 -123 -199 -58 -305 40 -63 101 -96 183 -97 81 0
114 21 146 96 42 95 30 184 -32 251 -71 74 -159 95 -239 55z"/>
<path d="M1965 6441 c-132 -58 -72 -281 80 -299 43 -4 47 -2 91 42 l47 46 -7
57 c-8 66 -31 119 -60 138 -27 17 -125 27 -151 16z"/>
<path d="M4082 6368 c-27 -27 -6 -68 35 -68 31 0 52 42 33 65 -15 18 -51 20
-68 3z"/>
<path d="M2622 6363 c-21 -8 -42 -59 -42 -101 0 -49 29 -88 76 -101 79 -22
128 38 110 134 -11 55 -87 91 -144 68z"/>
<path d="M3654 6173 c18 -77 17 -101 -3 -167 -25 -82 -26 -103 -5 -155 31 -78
114 -97 209 -48 98 49 133 111 114 198 -10 45 -17 53 -74 94 -56 40 -69 45
-117 45 -49 0 -57 3 -76 30 -29 39 -57 41 -48 3z"/>
<path d="M1625 6047 c-53 -30 -73 -69 -51 -102 25 -38 67 -16 97 50 35 77 23
91 -46 52z"/>
<path d="M2715 5987 c-56 -32 -100 -119 -99 -196 3 -135 85 -221 213 -221 33
0 72 5 88 11 33 12 90 64 108 99 50 99 8 237 -92 300 -62 39 -156 42 -218 7z"/>
<path d="M8865 5998 c-42 -23 -75 -62 -75 -89 0 -35 18 -49 77 -55 59 -7 73 5
80 70 9 73 -26 105 -82 74z"/>
<path d="M9087 5908 c-15 -5 -30 -20 -33 -32 -8 -33 12 -101 39 -132 19 -22
28 -25 54 -20 48 11 113 62 113 89 0 61 -105 119 -173 95z"/>
<path d="M4323 5874 c-18 -9 -51 -36 -73 -60 -67 -73 -52 -142 39 -173 71 -23
128 -4 155 53 32 67 11 167 -39 186 -35 13 -44 12 -82 -6z"/>
<path d="M4051 5824 c-21 -27 -28 -64 -13 -64 11 0 47 78 40 86 -3 3 -15 -7
-27 -22z"/>
<path d="M1320 5790 c-6 -11 -10 -46 -8 -78 l3 -57 39 -3 c82 -7 119 23 96 79
-27 65 -107 101 -130 59z"/>
<path d="M3678 5565 c-29 -16 -68 -88 -68 -127 0 -36 49 -70 109 -76 39 -3 49
0 69 21 25 27 39 90 28 132 -7 28 -59 65 -91 65 -11 -1 -32 -7 -47 -15z"/>
<path d="M2410 5450 c-11 -11 -20 -24 -20 -30 0 -15 39 -32 60 -25 22 7 25 26
10 56 -13 24 -25 24 -50 -1z"/>
<path d="M8655 5442 c-8 -39 1 -58 21 -41 18 14 18 30 0 54 -13 18 -14 17 -21
-13z"/>
<path d="M1823 5253 c-8 -6 -9 -22 -3 -51 10 -57 22 -69 57 -56 31 11 63 78
46 95 -14 14 -85 22 -100 12z"/>
<path d="M3017 5172 c-51 -53 -48 -121 7 -158 48 -31 116 8 116 66 0 52 -50
130 -82 130 -2 0 -21 -17 -41 -38z"/>
<path d="M3493 5180 c-34 -14 -43 -41 -50 -154 -5 -90 -4 -109 11 -132 15 -22
23 -25 52 -21 87 14 164 108 164 200 0 58 -21 102 -52 111 -33 8 -99 6 -125
-4z"/>
<path d="M2196 4994 c-17 -43 -2 -53 51 -33 l28 10 -25 19 c-31 24 -46 25 -54
4z"/>
<path d="M1017 4826 c-7 -18 1 -26 25 -26 11 0 18 7 18 20 0 23 -35 28 -43 6z"/>
<path d="M3644 4779 c-26 -9 -54 -46 -54 -71 0 -34 23 -67 58 -84 32 -15 39
-15 61 -3 79 45 19 190 -65 158z"/>
<path d="M3158 4289 c-25 -14 -23 -56 3 -70 28 -15 41 0 37 41 -3 37 -14 45
-40 29z"/>
<path d="M2870 4170 c-63 -30 -98 -65 -131 -135 -35 -73 -37 -122 -6 -184 67
-138 238 -225 350 -178 83 35 134 109 145 211 7 58 9 61 32 58 14 -1 51 -4 83
-5 51 -2 61 1 78 22 28 35 24 68 -15 107 -40 40 -60 42 -127 13 l-49 -21 -41
37 c-92 83 -231 116 -319 75z"/>
<path d="M1792 3608 c2 -25 8 -33 23 -33 16 0 20 7 20 30 0 24 -5 31 -23 33
-21 3 -23 0 -20 -30z"/>
<path d="M2224 3101 c-36 -17 -45 -27 -64 -78 -32 -84 -38 -207 -14 -285 22
-73 59 -114 138 -153 51 -25 64 -27 144 -23 218 11 298 110 229 279 -32 76
-67 119 -154 189 -107 87 -195 109 -279 71z"/>
<path d="M2690 2522 c-33 -34 -54 -102 -45 -148 5 -30 45 -74 67 -74 13 0 29
48 37 118 14 118 -7 156 -59 104z"/>
<path d="M2464 2265 c-12 -47 35 -75 56 -34 9 16 8 25 -6 40 -24 26 -42 24
-50 -6z"/>
<path d="M2491 1846 c-18 -21 -10 -46 19 -68 45 -33 82 0 57 50 -14 31 -57 41
-76 18z"/>
<path d="M2530 1646 c-25 -28 -30 -73 -9 -87 8 -5 30 -8 49 -7 33 3 35 5 38
44 2 28 -2 47 -13 58 -23 22 -38 20 -65 -8z"/>
<path d="M2466 985 c-105 -43 -216 -177 -216 -261 0 -18 12 -60 26 -94 24 -54
35 -66 101 -110 63 -42 82 -50 121 -50 26 0 84 -9 130 -21 67 -18 87 -20 108
-10 23 10 25 15 18 56 -5 40 -3 51 22 88 25 37 29 53 32 133 6 150 -25 220
-117 267 -71 35 -143 36 -225 2z"/>
<path d="M2777 282 c-20 -22 -22 -85 -4 -99 46 -37 97 -12 97 47 0 60 -57 92
-93 52z"/>
<path d="M2911 30 c7 -19 18 -30 30 -30 25 0 25 36 0 50 -34 17 -41 13 -30
-20z"/>
</g>
</svg>
