<?xml version="1.0" standalone="no"?>
<!DOCTYPE svg PUBLIC "-//W3C//DTD SVG 20010904//EN"
 "http://www.w3.org/TR/2001/REC-SVG-20010904/DTD/svg10.dtd">
<svg version="1.0" xmlns="http://www.w3.org/2000/svg"
 width="1252.000000pt" height="1280.000000pt" viewBox="0 0 1252.000000 1280.000000"
 preserveAspectRatio="xMidYMid meet">
<metadata>
Created by potrace 1.15, written by Peter Selinger 2001-2017
</metadata>
<g transform="translate(0.000000,1280.000000) scale(0.100000,-0.100000)"
fill="#0074e1" stroke="none">
<path d="M8899 12768 c-31 -35 -36 -57 -17 -76 14 -14 48 -16 48 -3 0 5 12 23
26 40 21 25 23 34 14 51 -15 29 -37 25 -71 -12z"/>
<path d="M8712 12518 c-32 -32 2 -79 43 -60 27 13 30 23 15 53 -12 21 -40 25
-58 7z"/>
<path d="M7642 12351 c-1 -70 2 -140 7 -154 12 -31 45 -50 71 -42 26 8 43 61
28 88 -6 11 -12 43 -13 70 -2 30 -10 59 -22 75 -13 18 -18 34 -13 47 11 30 1
45 -29 45 l-26 0 -3 -129z"/>
<path d="M9411 12386 c-26 -28 -81 -158 -81 -193 0 -13 -5 -34 -12 -46 -16
-30 -31 -130 -29 -197 1 -39 -5 -67 -21 -96 -20 -37 -20 -45 -9 -87 31 -110
77 -137 126 -73 19 25 46 42 95 61 l68 26 59 96 c86 141 125 222 117 245 -5
17 -12 19 -56 13 -27 -4 -62 -13 -76 -21 -15 -8 -37 -14 -48 -14 -12 0 -27 -7
-34 -15 -16 -20 -56 -19 -64 0 -3 9 5 43 19 77 19 46 22 64 14 75 -20 23 -40
14 -57 -27 -19 -45 -32 -52 -32 -16 0 26 54 151 78 178 33 39 -21 52 -57 14z"/>
<path d="M10040 12363 l-21 -27 30 -30 c30 -29 31 -29 51 -11 13 12 20 31 20
57 0 35 -2 38 -29 38 -20 0 -36 -9 -51 -27z"/>
<path d="M5034 12008 c-5 -7 -7 -48 -5 -92 2 -66 6 -85 25 -107 21 -24 22 -35
18 -106 -6 -100 17 -184 58 -223 16 -15 40 -53 54 -84 l25 -56 -19 -77 c-23
-87 -26 -153 -8 -171 39 -39 148 29 148 93 0 21 9 45 26 64 17 20 23 37 19 50
-3 11 -1 22 5 26 5 3 10 19 10 35 0 16 4 31 9 34 5 3 7 14 4 24 -2 10 3 24 11
31 22 18 21 22 -20 67 -72 77 -86 101 -75 122 7 13 7 22 0 29 -8 8 -8 17 0 31
15 28 14 141 -2 171 -6 13 -20 25 -31 27 -10 1 -25 12 -33 24 -10 13 -21 19
-33 15 -10 -3 -21 -1 -25 5 -6 9 -137 80 -149 80 -3 0 -8 -6 -12 -12z"/>
<path d="M4426 11765 c-26 -27 -39 -91 -24 -123 18 -38 50 -36 58 3 4 17 14
45 24 63 9 18 14 42 11 52 -8 24 -47 27 -69 5z"/>
<path d="M9988 11713 c-25 -32 -53 -73 -62 -91 -10 -19 -33 -54 -51 -78 -54
-71 -103 -166 -105 -204 -3 -56 -1 -60 29 -60 26 0 29 4 39 54 13 67 48 137
107 218 25 33 45 66 45 73 0 7 14 39 30 70 17 31 30 61 30 66 0 21 -20 5 -62
-48z"/>
<path d="M7641 11611 c-14 -26 -14 -97 0 -123 l11 -21 18 23 c15 20 21 22 34
11 21 -17 46 -7 46 18 0 43 -30 79 -92 109 -4 2 -11 -6 -17 -17z"/>
<path d="M2370 11445 c-19 -23 2 -63 37 -71 15 -4 45 -15 66 -26 29 -14 42
-16 57 -8 24 13 25 19 4 48 -9 13 -30 24 -54 28 -22 4 -47 15 -56 25 -21 23
-37 24 -54 4z"/>
<path d="M8220 11381 c-34 -6 -35 -7 -63 -101 l-27 -95 8 -185 c10 -196 9
-200 -37 -200 -21 0 -23 -3 -17 -32 3 -18 14 -43 24 -56 29 -41 31 -46 37 -86
9 -53 40 -81 99 -89 26 -4 52 -5 56 -2 4 3 22 29 38 58 16 28 41 63 55 76 l26
24 6 -29 c15 -68 40 -92 76 -74 24 14 25 50 0 57 -15 4 -18 15 -18 61 0 31 4
62 9 69 5 6 8 40 6 75 -3 58 -5 63 -27 66 -42 6 -66 -7 -99 -53 -37 -53 -57
-63 -84 -46 -11 7 -30 14 -41 17 -39 7 -42 20 -39 147 3 87 9 138 23 177 10
30 19 61 19 70 0 8 11 39 25 68 19 41 22 58 15 73 -11 20 -13 20 -70 10z"/>
<path d="M11320 11285 c-7 -8 -23 -15 -36 -15 -15 0 -30 -10 -41 -27 -10 -16
-26 -34 -35 -41 -24 -17 -23 -26 6 -56 27 -30 34 -31 55 -11 49 47 92 72 116
68 30 -6 30 -8 5 -40 -16 -20 -17 -28 -7 -44 17 -27 45 -34 65 -16 9 9 21 17
26 19 5 2 22 14 38 28 47 41 31 89 -26 74 -17 -4 -35 5 -70 35 -50 43 -76 50
-96 26z"/>
<path d="M2810 11257 c0 -7 5 -18 11 -24 6 -6 16 -20 23 -31 40 -69 69 -103
84 -100 26 5 25 32 -3 74 -46 67 -115 116 -115 81z"/>
<path d="M7654 11185 c-3 -8 -14 -17 -25 -20 -25 -8 -24 -31 0 -45 33 -17 51
-2 51 41 0 39 -15 53 -26 24z"/>
<path d="M5509 11077 c-51 -27 -65 -68 -29 -87 11 -6 28 -28 38 -48 23 -50
104 -104 141 -96 62 15 67 53 15 115 -19 23 -44 60 -55 80 -16 32 -44 59 -62
59 -2 0 -24 -10 -48 -23z"/>
<path d="M8771 11060 c-42 -42 -48 -68 -22 -93 l21 -21 26 25 c40 37 57 75 44
99 -15 28 -33 25 -69 -10z"/>
<path d="M10468 11063 c-26 -3 -45 -13 -63 -34 -28 -34 -31 -65 -10 -93 8 -11
15 -41 15 -66 0 -25 5 -51 12 -58 6 -6 10 -35 9 -66 -2 -59 30 -144 83 -222
38 -56 35 -72 -26 -156 -10 -14 -8 -21 11 -42 33 -35 51 -22 97 69 l37 74 -18
88 c-12 53 -20 134 -20 203 -1 80 -7 128 -18 159 -10 24 -17 61 -17 82 0 38
-21 70 -43 67 -7 -1 -29 -3 -49 -5z"/>
<path d="M1550 11039 c-7 -11 -6 -27 0 -43 7 -20 17 -26 39 -26 37 0 63 32 52
64 -11 28 -77 32 -91 5z"/>
<path d="M6207 10953 c-4 -3 -7 -16 -7 -29 0 -27 92 -99 115 -90 20 7 19 40
-1 57 -8 7 -22 25 -30 41 -11 21 -22 28 -43 28 -15 0 -31 -3 -34 -7z"/>
<path d="M3055 10830 c-36 -49 -45 -97 -21 -106 13 -5 36 -66 51 -136 7 -34
40 -55 61 -37 10 8 14 34 14 91 0 57 5 88 17 109 16 27 16 30 -3 56 -11 16
-23 35 -26 44 -4 9 -18 19 -32 21 -22 5 -32 -2 -61 -42z"/>
<path d="M10768 10828 c-9 -7 -22 -32 -28 -56 -9 -37 -8 -48 7 -74 29 -50 46
-55 82 -26 16 14 35 28 41 30 9 3 18 85 9 91 -18 11 -89 47 -92 47 -2 0 -10
-6 -19 -12z"/>
<path d="M9655 10815 c-47 -25 -51 -32 -105 -165 -69 -168 -74 -184 -66 -213
11 -47 37 -43 88 15 26 29 48 61 48 70 0 10 9 23 21 30 31 19 126 152 134 187
7 31 6 32 -35 35 -9 1 -15 11 -15 26 0 31 -28 37 -70 15z"/>
<path d="M7581 10741 c-11 -11 -21 -34 -21 -49 0 -15 -4 -32 -9 -37 -5 -6 -12
-60 -16 -121 -7 -108 -6 -111 18 -140 20 -23 33 -29 67 -29 44 0 51 6 118 94
12 16 39 35 59 42 33 11 38 10 53 -9 10 -11 20 -46 24 -78 8 -71 -3 -88 -53
-79 -101 17 -106 17 -134 -5 -35 -28 -35 -73 1 -78 14 -2 27 -14 33 -30 5 -14
19 -32 29 -39 27 -19 25 -42 -5 -83 -14 -19 -25 -42 -25 -53 0 -26 -17 -55
-61 -106 -45 -51 -81 -140 -77 -190 3 -31 7 -36 30 -39 28 -3 53 16 92 73 27
40 42 18 67 -100 30 -142 30 -223 -1 -313 -23 -67 -24 -75 -10 -100 19 -32 44
-39 77 -21 29 16 73 87 73 118 0 12 5 32 11 44 23 44 100 126 144 154 25 15
48 36 50 45 5 12 17 16 51 15 38 -2 49 2 69 25 22 26 105 255 105 290 0 43
-59 33 -93 -17 -13 -19 -41 -48 -62 -65 -21 -17 -54 -54 -73 -83 -19 -29 -59
-78 -89 -109 -30 -32 -63 -77 -73 -101 -21 -48 -44 -72 -59 -63 -5 3 -7 45 -5
92 l3 86 60 64 c72 77 82 109 56 193 -20 67 -16 82 45 146 51 54 56 76 30 129
-31 65 -64 96 -100 96 -24 0 -33 6 -41 27 -5 14 -7 33 -4 41 3 8 10 46 15 85
10 68 10 71 -20 118 -17 26 -38 53 -46 59 -18 16 -18 46 1 54 21 8 19 42 -2
51 -10 5 -77 10 -149 13 -124 4 -133 3 -153 -17z"/>
<path d="M4528 10655 c-7 -9 -19 -22 -25 -30 -20 -21 -15 -42 17 -77 l30 -33
24 26 c19 22 22 34 17 64 -8 47 -42 75 -63 50z"/>
<path d="M3882 10598 c-31 -31 4 -93 49 -86 35 5 47 33 29 66 -17 30 -57 41
-78 20z"/>
<path d="M6332 10573 c-25 -5 -56 -48 -73 -103 -6 -19 -22 -51 -35 -70 -25
-38 -84 -211 -84 -248 0 -41 28 -37 74 11 32 32 46 57 51 87 8 50 28 60 60 30
36 -33 154 -73 183 -60 40 18 28 53 -40 114 -48 44 -68 56 -94 56 -18 0 -35 3
-38 8 -2 4 8 33 24 65 20 42 26 65 21 84 -8 29 -14 32 -49 26z"/>
<path d="M5582 10553 c-7 -3 -19 -20 -27 -39 -14 -35 -20 -37 -89 -34 -38 2
-39 1 -31 -27 4 -15 7 -57 6 -92 -2 -60 0 -66 26 -87 27 -22 27 -22 9 -42 -12
-14 -18 -38 -19 -70 -2 -49 -3 -50 -48 -71 -56 -25 -58 -25 -81 -4 -17 15 -19
15 -36 0 -10 -10 -24 -17 -30 -17 -17 0 -55 -22 -65 -37 -4 -7 -16 -13 -27
-13 -14 0 -20 10 -25 53 -4 28 -17 70 -30 92 -12 22 -28 65 -34 95 -14 63 -91
228 -120 254 -24 21 -44 16 -101 -25 l-42 -30 7 -52 c4 -32 17 -68 34 -92 15
-22 33 -54 40 -72 7 -17 41 -57 74 -88 102 -93 157 -147 157 -154 -1 -3 -17
-17 -37 -29 -33 -21 -38 -22 -49 -8 -17 24 -24 20 -24 -14 0 -42 -39 -67 -79
-50 -17 6 -43 9 -60 5 -19 -4 -40 -1 -60 9 -37 19 -70 20 -94 2 -16 -13 -14
-17 33 -51 55 -41 59 -49 30 -67 -12 -8 -20 -24 -20 -41 0 -15 -7 -41 -15 -57
-8 -16 -12 -35 -9 -43 3 -8 -2 -17 -10 -20 -18 -7 -16 -88 4 -167 8 -31 8 -46
1 -48 -16 -5 -13 -28 4 -42 10 -8 15 -30 15 -61 0 -27 4 -49 9 -49 15 0 2
-220 -14 -243 -8 -12 -15 -32 -15 -45 0 -15 -7 -26 -20 -29 -24 -6 -27 -49 -5
-80 30 -42 82 -66 133 -60 35 4 52 1 65 -11 17 -15 21 -15 49 1 16 9 49 17 73
17 38 0 44 -3 49 -26 8 -29 -12 -59 -47 -70 -17 -5 -19 -12 -13 -53 4 -36 13
-53 42 -78 35 -31 35 -32 14 -43 -12 -7 -36 -10 -53 -7 -43 6 -106 -38 -106
-73 2 -53 14 -75 49 -86 32 -11 62 -56 47 -71 -14 -14 -76 22 -119 68 l-46 51
-94 -3 -93 -3 -3 36 c-2 29 5 48 32 89 40 57 40 57 25 96 -22 58 -65 58 -117
2 -34 -39 -37 -47 -38 -108 -1 -47 3 -71 14 -84 18 -20 10 -31 -29 -41 -23 -5
-28 -1 -43 33 -11 22 -16 55 -14 77 3 36 1 39 -24 42 -22 3 -30 -2 -38 -23 -5
-14 -10 -42 -10 -61 0 -49 -35 -65 -82 -37 -26 15 -34 27 -39 59 -7 49 -33
100 -58 114 -24 13 -96 13 -119 1 -9 -6 -30 -13 -46 -16 -28 -6 -28 -7 -24
-65 4 -53 2 -59 -16 -64 -33 -9 -34 -8 -41 38 -6 36 -2 56 19 102 33 72 33 97
-1 122 -24 17 -29 18 -55 4 -16 -8 -33 -25 -38 -38 -5 -13 -15 -24 -21 -24 -7
0 -21 -7 -31 -16 -27 -26 -44 -3 -51 66 -6 72 -16 86 -71 102 -22 6 -47 16
-53 21 -9 6 -26 -5 -57 -37 -40 -41 -44 -49 -39 -81 4 -27 2 -36 -12 -41 -16
-6 -15 -9 5 -24 17 -13 35 -16 67 -12 33 4 48 0 64 -14 33 -30 41 -51 29 -74
-10 -18 -20 -21 -73 -19 -34 1 -68 1 -75 0 -7 0 -25 -29 -42 -63 l-29 -63 47
-42 c29 -27 56 -43 72 -43 28 0 90 -50 90 -72 0 -8 15 -18 33 -23 28 -9 32
-14 29 -40 -2 -16 -28 -81 -59 -144 -47 -96 -61 -115 -89 -127 -18 -7 -35 -22
-38 -32 -12 -36 -186 -23 -200 14 -4 10 -13 13 -25 9 -10 -3 -24 1 -31 10 -7
8 -28 15 -47 15 -28 0 -46 11 -103 65 -38 36 -76 65 -84 65 -8 0 -33 24 -57
53 -23 28 -46 56 -51 61 -9 11 -48 -21 -48 -39 0 -6 14 -24 31 -41 17 -16 35
-40 40 -52 5 -13 18 -26 29 -29 23 -6 27 -31 5 -39 -19 -8 -19 -44 -2 -68 12
-17 17 -17 50 -5 20 7 39 10 43 6 4 -3 1 -27 -5 -52 -14 -55 -8 -69 53 -119
26 -21 46 -44 46 -52 0 -16 9 -18 29 -5 9 6 22 6 34 -1 18 -9 18 -10 -1 -31
-25 -28 -42 -61 -42 -83 0 -10 -8 -26 -17 -36 -16 -17 -15 -20 15 -51 18 -18
32 -39 32 -46 0 -9 8 -11 24 -7 17 4 28 1 34 -10 8 -14 14 -13 50 11 36 23 43
25 64 14 13 -7 29 -12 36 -10 9 1 12 -7 10 -25 -2 -21 -11 -30 -41 -40 -20 -7
-59 -32 -86 -54 -48 -40 -49 -42 -35 -68 8 -15 14 -33 14 -40 0 -8 18 -21 40
-29 30 -12 42 -24 50 -49 10 -29 16 -34 44 -34 19 0 50 11 72 26 21 15 57 29
80 32 36 4 44 1 63 -24 16 -20 26 -25 35 -19 54 39 147 125 176 163 52 67 122
123 161 128 19 2 52 7 73 10 l39 7 -52 -62 c-43 -53 -51 -68 -51 -104 0 -50
-30 -105 -62 -111 -13 -3 -43 -9 -68 -14 -25 -6 -90 -28 -145 -50 -124 -50
-164 -62 -199 -62 -28 0 -76 -21 -113 -50 -18 -14 -37 -17 -88 -14 -36 2 -70
6 -74 9 -5 2 -23 0 -40 -6 -28 -10 -32 -15 -29 -42 3 -29 0 -31 -37 -39 -21
-5 -43 -14 -47 -21 -12 -18 -10 -71 4 -85 8 -8 8 -15 -1 -26 -12 -14 -17 -13
-45 9 -23 18 -47 25 -91 27 -45 2 -60 7 -60 18 0 8 8 16 19 18 24 5 65 52 66
74 0 10 -9 22 -21 28 -16 9 -28 6 -64 -14 -24 -14 -52 -26 -63 -26 -11 0 -27
-11 -36 -24 -15 -24 -17 -25 -60 -10 -60 21 -73 38 -91 124 -17 83 -25 96 -61
103 -37 7 -38 -11 -4 -78 27 -52 28 -61 15 -74 -13 -13 -17 -13 -34 3 -13 12
-44 21 -86 25 -51 6 -71 13 -93 34 -15 15 -38 27 -50 27 -29 0 -69 25 -107 67
-23 26 -35 32 -53 27 -14 -4 -21 -12 -18 -20 4 -10 -2 -12 -23 -8 -34 7 -54
-14 -49 -52 2 -21 10 -30 28 -34 16 -4 26 -14 28 -28 2 -12 9 -22 16 -22 22 0
66 -40 66 -60 0 -10 -19 -33 -41 -51 l-42 -33 23 -18 c12 -10 28 -18 35 -18 6
0 20 -9 29 -19 18 -19 18 -19 49 0 18 10 44 19 58 19 31 0 82 -50 77 -76 -5
-29 51 -33 59 -5 9 34 65 38 126 8 29 -13 82 -32 119 -41 37 -9 83 -23 102
-31 20 -8 48 -15 65 -15 40 0 51 -37 13 -46 -15 -3 -48 -14 -74 -25 -26 -10
-55 -19 -66 -19 -19 0 -52 -29 -52 -46 0 -5 9 -17 20 -27 19 -16 23 -16 52 -1
56 29 162 46 208 34 34 -9 44 -18 65 -60 21 -41 25 -63 25 -136 0 -86 0 -87
36 -127 l37 -40 -6 -86 c-3 -47 -2 -97 2 -111 6 -22 11 -25 50 -22 23 2 56 -2
72 -8 27 -11 32 -10 50 9 20 21 63 29 73 13 3 -5 -12 -25 -33 -46 -26 -25 -43
-35 -55 -30 -11 4 -27 -3 -46 -21 -26 -25 -34 -27 -78 -22 -26 3 -54 2 -62 -3
-10 -6 -20 -4 -31 6 -10 9 -34 17 -54 18 -20 2 -46 13 -59 25 -24 23 -43 26
-65 12 -11 -7 -12 -13 -4 -23 14 -18 25 -81 17 -102 -4 -11 -18 -16 -43 -16
-20 0 -47 -9 -60 -19 l-23 -18 40 -31 c47 -37 58 -38 132 -11 128 47 175 42
216 -22 17 -27 31 -39 48 -39 29 0 50 23 42 47 -11 35 34 66 81 57 20 -4 33
-1 42 10 8 9 21 16 31 16 10 0 23 6 29 14 7 9 43 17 94 21 73 7 86 11 122 41
136 114 137 115 168 87 10 -10 37 -27 60 -38 58 -29 64 -44 39 -97 -32 -64
-29 -148 5 -148 11 0 13 -5 8 -17 -28 -65 -44 -122 -39 -144 3 -17 -1 -31 -16
-44 -11 -10 -20 -27 -20 -38 0 -11 -7 -28 -15 -37 -14 -15 -14 -20 4 -41 29
-35 50 -16 87 78 17 44 50 108 73 141 35 52 41 69 41 112 0 64 19 102 66 129
29 18 39 19 45 9 12 -18 12 -19 -11 -53 -34 -52 -22 -183 21 -226 24 -24 24
-26 -3 -65 -20 -30 -29 -34 -85 -40 -70 -7 -79 -14 -63 -44 8 -16 21 -20 59
-20 42 0 49 -3 60 -26 14 -31 0 -54 -32 -54 -11 0 -28 -7 -38 -16 -14 -12 -22
-13 -39 -4 -24 13 -22 14 -109 -62 -58 -51 -75 -57 -100 -34 -11 10 -27 12
-51 8 -45 -9 -72 -61 -74 -141 l-1 -56 38 2 c29 2 50 -5 83 -28 24 -16 44 -36
44 -44 0 -8 -25 -41 -56 -74 -46 -51 -62 -61 -89 -61 -35 0 -58 19 -74 63 -6
15 -17 27 -25 27 -25 0 -69 -20 -81 -37 -11 -15 -33 -15 -78 2 -24 10 -41 -45
-28 -91 17 -59 13 -99 -9 -119 -11 -10 -20 -31 -20 -47 0 -57 -25 -111 -72
-159 -27 -27 -48 -53 -48 -58 0 -5 -13 -18 -30 -28 -16 -9 -30 -21 -30 -25 0
-4 16 -25 35 -47 19 -21 35 -45 35 -53 0 -7 -13 -29 -29 -48 -25 -30 -34 -34
-76 -35 -54 0 -78 -21 -59 -52 6 -11 8 -30 3 -46 -6 -22 -3 -29 12 -38 16 -8
26 -5 55 20 41 36 79 40 140 12 27 -12 45 -29 54 -50 13 -31 12 -34 -24 -68
-41 -40 -44 -53 -18 -76 26 -24 34 -22 72 18 19 19 39 35 46 35 7 0 26 12 43
26 39 32 115 47 286 54 39 2 120 -27 123 -44 5 -25 -17 -46 -46 -46 -14 0 -36
-10 -49 -21 -21 -20 -23 -21 -29 -5 -4 10 -18 22 -31 27 -39 15 -88 -21 -107
-77 -14 -42 -14 -47 5 -79 29 -49 66 -48 123 5 49 45 88 60 157 60 44 0 47 -2
64 -40 10 -22 26 -47 36 -56 11 -10 19 -22 19 -29 0 -6 -25 -37 -55 -68 -30
-31 -51 -58 -47 -60 4 -3 23 -8 42 -12 86 -17 140 -39 140 -57 0 -23 -34 -44
-89 -57 -24 -5 -55 -20 -70 -33 -14 -13 -43 -35 -63 -49 -41 -26 -75 -101 -63
-138 8 -27 -13 -36 -36 -15 -19 17 -22 17 -52 2 -18 -9 -50 -19 -72 -22 -104
-13 -127 -23 -155 -69 -11 -18 -20 -49 -20 -69 0 -34 3 -38 25 -38 30 0 29 4
8 -75 -16 -59 -16 -65 0 -89 11 -16 27 -26 41 -26 43 0 111 36 140 75 26 33
28 42 23 92 -8 73 3 97 52 116 22 9 45 26 52 38 11 22 11 22 36 -10 13 -17 31
-31 39 -31 26 0 15 -29 -26 -69 -45 -43 -49 -60 -20 -86 16 -14 30 -17 74 -12
30 3 67 13 82 23 17 12 57 21 113 25 47 4 99 10 114 14 21 6 34 3 50 -12 12
-11 43 -28 70 -37 65 -24 77 -39 77 -94 0 -31 10 -68 30 -111 34 -72 40 -132
20 -200 -13 -42 -12 -45 10 -63 22 -18 24 -26 24 -129 1 -83 -2 -108 -11 -104
-15 5 -32 -25 -48 -85 -7 -25 -17 -44 -23 -43 -6 1 -13 -11 -17 -27 -4 -17
-10 -30 -14 -30 -5 0 -22 -13 -39 -30 -18 -16 -35 -30 -40 -30 -4 0 -19 21
-32 47 -26 53 -36 135 -46 403 -4 96 -10 161 -18 170 -16 20 -46 88 -46 104 0
21 -41 53 -103 80 -32 14 -76 39 -97 56 -41 33 -63 33 -122 3 l-28 -13 31 -55
31 -55 -38 -56 c-21 -30 -64 -85 -96 -122 -68 -80 -72 -105 -28 -176 l31 -48
32 22 c18 11 58 34 89 50 31 16 59 34 63 40 3 5 30 10 58 10 91 0 137 -46 137
-136 0 -16 8 -28 25 -36 23 -11 25 -16 27 -92 0 -45 0 -91 -1 -103 -1 -14 10
-30 32 -47 18 -14 40 -37 47 -51 12 -23 11 -28 -15 -55 -16 -17 -34 -30 -39
-30 -6 0 -22 -16 -36 -36 -13 -20 -34 -43 -47 -51 -13 -9 -23 -25 -23 -37 0
-26 35 -85 56 -93 26 -10 95 17 128 49 16 17 50 39 75 50 97 41 178 152 193
263 9 65 30 364 28 380 -10 57 -5 195 8 225 8 19 17 72 20 117 l5 81 25 -11
c21 -10 27 -8 44 13 36 45 69 60 131 60 32 0 66 -4 75 -9 11 -6 37 -6 65 0 35
6 63 4 105 -7 100 -28 125 -32 229 -38 57 -4 115 -13 130 -21 71 -37 121 -13
258 129 96 99 167 146 221 146 29 0 34 -3 34 -24 0 -16 -11 -32 -30 -46 -16
-12 -30 -27 -30 -35 0 -7 -11 -23 -26 -34 -30 -24 -40 -75 -22 -111 18 -33 71
-50 131 -43 34 4 47 2 47 -7 0 -9 5 -8 18 3 30 27 35 20 29 -35 -3 -29 0 -74
6 -101 14 -63 -3 -174 -48 -308 -39 -115 -45 -177 -21 -232 20 -46 35 -53 75
-33 36 19 47 37 56 91 3 22 10 49 15 60 4 11 15 55 24 97 12 58 13 84 5 105
-6 15 -12 55 -14 88 -3 55 -27 232 -41 298 -5 24 -3 28 13 25 10 -3 30 2 45 9
23 11 34 11 71 -2 62 -21 322 -21 397 -1 91 26 233 17 278 -17 8 -7 12 -44 12
-124 0 -122 11 -162 51 -184 16 -8 20 -17 16 -37 -8 -45 -34 -106 -46 -110 -6
-2 -11 -12 -11 -23 0 -10 -10 -39 -22 -64 -26 -53 -20 -70 30 -96 26 -13 29
-19 19 -28 -8 -6 -28 -14 -44 -17 -17 -3 -47 -19 -66 -35 -29 -23 -36 -38 -42
-78 -6 -42 -3 -58 20 -103 54 -106 116 -197 151 -217 l34 -21 54 27 c30 14 61
38 70 54 10 17 26 29 38 29 20 0 20 -4 14 -75 -8 -88 1 -111 67 -172 47 -44
95 -60 147 -50 25 5 37 -2 93 -56 121 -117 185 -167 211 -167 23 0 26 4 26 35
0 30 -7 40 -47 70 -77 56 -193 195 -193 230 0 8 16 33 36 55 34 38 61 110 49
131 -4 5 -23 9 -44 9 -40 0 -62 15 -54 36 9 24 -6 62 -27 69 -11 3 -20 13 -20
22 0 12 -7 14 -27 9 -86 -19 -89 -19 -122 11 l-33 28 31 39 c51 64 37 103 -46
125 -38 11 -93 58 -93 82 0 17 -35 9 -48 -11 -17 -27 -41 -25 -74 7 -33 32
-36 66 -7 108 11 17 31 51 45 78 13 26 30 47 38 47 7 0 19 7 26 15 12 14 15
14 30 0 13 -12 16 -24 10 -54 -8 -45 3 -71 30 -71 28 0 33 15 31 98 -2 78 -22
128 -47 118 -18 -7 -17 -2 1 35 10 18 18 70 22 132 5 84 9 106 27 125 14 16
27 21 43 17 30 -7 53 28 53 83 0 53 -14 82 -40 82 -11 0 -29 9 -41 21 -34 34
-10 49 80 49 65 0 82 -4 114 -25 64 -44 95 -136 64 -192 -7 -12 -30 -38 -53
-57 -69 -59 -80 -160 -21 -201 30 -21 54 -18 112 10 28 14 55 25 62 25 37 0
57 97 28 136 -17 22 -19 53 -6 88 9 21 14 23 37 17 34 -9 36 -13 75 -139 l32
-102 45 -20 45 -20 29 27 c15 15 33 42 40 60 9 25 18 33 36 33 20 0 23 -4 18
-23 -4 -19 0 -25 25 -34 17 -7 33 -21 36 -33 3 -11 18 -27 33 -35 25 -13 31
-13 51 3 18 16 21 24 15 56 -10 52 -75 112 -130 121 -23 3 -51 13 -63 23 -30
23 -89 188 -102 285 -6 42 -12 81 -13 88 -5 22 20 20 49 -5 39 -33 110 -39
125 -11 6 11 16 25 22 30 17 15 46 63 46 75 0 18 93 121 123 136 15 8 33 27
39 42 7 15 18 34 24 42 20 24 30 100 13 100 -7 0 -39 18 -70 40 -32 22 -68 40
-82 40 -28 0 -52 24 -42 41 5 7 24 10 55 6 84 -10 94 33 24 100 -56 55 -54 73
10 91 58 17 69 9 80 -57 7 -43 23 -60 71 -77 44 -15 60 -4 79 54 17 51 48 92
69 91 7 0 20 -4 30 -8 17 -6 17 -8 4 -20 -11 -8 -13 -19 -8 -34 5 -13 3 -31
-6 -46 -22 -44 -14 -91 17 -91 11 0 35 -9 54 -21 27 -16 39 -18 55 -10 10 6
52 12 92 13 l72 3 37 -60 c24 -38 36 -68 33 -81 -6 -29 13 -39 43 -23 29 15
42 5 26 -21 -15 -24 -15 -45 -2 -71 10 -18 12 -18 35 -3 24 15 25 15 36 -10
14 -29 22 -32 38 -13 21 26 69 123 82 165 6 23 18 42 24 42 28 0 65 -42 71
-80 7 -44 35 -76 59 -67 11 5 15 21 15 61 0 47 3 57 23 67 12 7 39 32 61 56
27 31 43 42 55 37 9 -4 42 -6 74 -5 44 2 66 -3 92 -19 38 -24 62 -21 90 10 18
20 18 22 -4 61 -27 47 -18 69 19 49 41 -22 81 -29 106 -20 21 8 26 6 34 -16
16 -41 12 -73 -12 -92 -121 -98 -129 -112 -87 -160 18 -20 41 -42 51 -48 22
-12 14 -24 -16 -24 -12 0 -38 -11 -59 -25 -35 -24 -37 -29 -37 -78 0 -44 5
-58 29 -85 17 -17 34 -32 38 -32 12 0 51 28 96 67 60 53 124 44 226 -34 3 -2
-6 -14 -19 -27 -18 -20 -21 -32 -16 -58 8 -45 43 -99 67 -105 23 -6 25 -26 4
-43 -8 -7 -15 -20 -15 -30 0 -15 59 -145 96 -210 7 -14 14 -33 14 -42 0 -19
11 -22 48 -12 31 9 28 37 -13 118 -42 85 -45 122 -10 138 14 6 25 17 25 25 0
8 11 13 29 13 36 0 44 11 61 83 16 68 6 110 -27 115 -11 2 -23 13 -26 24 -5
19 -11 20 -67 15 -58 -5 -62 -4 -94 26 -44 43 -86 117 -86 154 0 16 -3 33 -7
37 -4 4 -6 26 -4 49 3 54 -19 84 -80 106 -44 17 -44 17 -45 67 0 28 -4 56 -8
63 -5 7 3 20 18 32 41 32 57 71 46 109 -15 52 -37 70 -87 70 -62 0 -100 -41
-95 -100 0 -3 4 -13 7 -23 9 -23 -10 -22 -91 4 -59 19 -71 28 -120 88 -68 82
-111 107 -159 91 -19 -6 -54 -10 -77 -8 -34 2 -43 -1 -46 -14 -2 -11 6 -22 20
-29 36 -16 51 -45 37 -70 -7 -13 -17 -19 -29 -16 -13 3 -26 -6 -45 -33 -39
-56 -55 -59 -55 -9 0 41 -27 106 -54 128 -20 17 -20 31 -1 67 8 16 15 37 15
47 0 10 12 55 26 100 14 45 28 88 30 95 7 24 75 45 111 34 36 -11 44 -5 57 51
5 23 3 30 -12 34 -11 2 -27 21 -36 41 -17 34 -16 37 1 61 28 37 119 80 174 80
25 1 50 6 56 12 13 13 128 -23 157 -50 12 -10 40 -21 63 -23 41 -3 43 -2 54
29 13 42 47 53 70 24 19 -24 61 -27 96 -8 34 19 73 77 73 109 0 18 8 33 24 43
22 15 27 15 58 -1 18 -9 41 -23 50 -32 22 -19 131 -11 184 14 19 9 36 15 37
13 1 -2 9 -17 17 -34 24 -47 72 -54 136 -22 67 34 114 74 114 98 0 10 -11 26
-25 35 -14 9 -25 20 -25 24 0 9 97 104 129 127 26 17 118 26 126 12 4 -5 -5
-21 -19 -34 -34 -31 -34 -69 -1 -91 41 -27 94 -6 152 62 61 70 54 65 145 125
86 57 110 95 79 123 -25 22 -77 20 -113 -5 -16 -12 -32 -19 -35 -15 -3 3 -19
-6 -35 -19 -36 -30 -57 -31 -106 -6 -52 28 -171 161 -143 161 16 0 13 42 -4
67 -15 21 -14 23 10 29 14 3 26 14 26 23 5 60 -23 81 -107 81 -67 0 -76 -8
-55 -48 12 -23 0 -50 -42 -95 -28 -30 -42 -37 -71 -37 -45 0 -73 26 -111 99
-32 65 -53 73 -175 70 -52 -1 -102 1 -110 4 -8 3 -24 7 -35 9 -16 3 -21 13
-25 53 -3 28 -13 64 -22 80 -8 17 -18 42 -22 57 -4 17 -18 34 -37 43 -28 15
-33 15 -87 -11 -31 -15 -79 -46 -107 -70 -54 -48 -69 -53 -83 -28 -5 9 -30 20
-56 25 -26 5 -61 20 -79 33 -18 13 -51 31 -74 39 -42 14 -183 132 -183 152 0
25 56 65 92 65 61 0 116 60 67 73 -29 8 -18 39 35 98 31 36 48 47 72 48 16 1
34 5 40 10 5 4 32 16 61 25 60 18 73 15 152 -38 39 -27 63 -36 85 -34 31 3 31
3 31 64 0 89 39 127 89 89 34 -26 81 -19 120 19 32 30 36 39 36 84 0 45 3 54
28 69 39 25 43 33 40 83 l-2 45 164 3 c152 2 166 1 192 -18 32 -24 87 -26 127
-6 25 13 31 13 50 0 19 -14 22 -14 27 0 5 13 22 16 80 16 59 0 76 3 81 16 9
24 -11 37 -73 45 -31 4 -58 10 -61 13 -3 3 0 19 7 35 17 42 8 58 -39 71 -22 6
-43 15 -46 19 -7 12 -126 -46 -147 -73 -10 -12 -18 -36 -18 -55 l0 -34 -187 6
c-243 7 -268 14 -198 56 45 26 44 46 -2 59 -98 28 -117 38 -156 85 -66 77
-124 120 -152 113 -14 -4 -25 -13 -25 -21 0 -23 -35 -18 -70 11 -36 31 -39 76
-5 82 11 2 25 9 30 16 16 20 103 76 117 76 7 0 19 9 26 20 7 11 18 20 26 20
24 0 39 26 27 49 -10 17 -15 19 -44 9 -17 -6 -39 -17 -48 -24 -8 -8 -23 -14
-33 -14 -9 0 -28 -11 -41 -24 -38 -38 -67 -56 -92 -56 -48 0 -36 44 22 80 19
12 35 28 35 36 0 9 4 12 10 9 13 -8 120 56 120 72 0 7 7 13 17 13 27 0 101 48
108 71 12 35 -9 44 -48 20 -19 -11 -42 -21 -51 -21 -21 0 -67 -29 -84 -52 -7
-10 -22 -18 -33 -18 -10 0 -28 -9 -38 -19 -23 -23 -71 -34 -90 -22 -21 14 -17
98 7 153 30 69 158 178 208 178 26 0 74 52 74 81 0 25 -9 24 -50 -6 -19 -14
-42 -25 -52 -25 -10 0 -46 -14 -79 -30 -53 -27 -63 -29 -86 -18 -33 16 -50 62
-32 85 8 9 12 27 11 40 -3 21 6 28 81 63 47 21 88 43 91 48 5 9 132 73 169 85
9 4 17 13 17 20 0 8 7 20 15 27 8 7 15 17 15 23 0 5 -9 2 -19 -7 -11 -10 -24
-15 -30 -12 -6 4 -27 -2 -48 -12 -161 -81 -173 -86 -185 -74 -6 6 -10 13 -7
15 12 10 193 88 247 108 35 12 66 28 69 36 3 7 14 13 24 13 10 0 28 9 39 20
17 17 18 24 8 47 -7 16 -13 29 -14 31 -1 2 -26 -12 -55 -31 -30 -19 -65 -38
-79 -42 -14 -4 -32 -13 -40 -20 -8 -7 -32 -18 -53 -25 -21 -6 -41 -19 -44 -27
-4 -9 -14 -13 -28 -9 -12 3 -39 -3 -61 -14 l-39 -20 -7 21 c-6 16 1 41 28 93
20 39 41 76 48 81 17 15 46 71 46 88 0 9 30 46 66 83 65 66 84 101 84 157 0
22 17 46 76 105 42 42 83 92 90 110 8 17 19 32 25 32 6 0 23 9 37 21 l26 20
16 -22 c19 -25 38 -19 79 25 14 14 32 26 42 26 9 0 22 7 29 15 13 15 6 35 -13
35 -31 1 -38 16 -21 48 8 18 19 32 24 32 9 0 80 95 80 107 0 4 -15 -7 -32 -23
-18 -17 -53 -43 -78 -59 -25 -16 -53 -36 -64 -45 -11 -9 -38 -15 -72 -15 l-54
0 45 42 c25 22 53 58 62 80 12 28 18 33 21 20 3 -16 9 -14 45 16 23 19 63 43
90 55 43 19 47 24 47 56 0 30 -4 36 -22 36 -11 0 -37 -17 -58 -37 -20 -21 -59
-56 -88 -78 -28 -22 -54 -47 -57 -55 -3 -9 -49 -56 -103 -105 -53 -49 -98 -94
-100 -101 -2 -7 7 -16 20 -19 49 -16 50 -49 3 -76 -19 -11 -37 -29 -40 -39 -6
-18 -52 -36 -64 -25 -3 4 10 19 29 35 19 16 32 32 28 36 -4 4 2 20 13 35 23
33 11 39 -16 9 -10 -11 -24 -20 -30 -20 -7 0 -20 -11 -29 -25 -9 -14 -24 -25
-33 -25 -10 0 -41 -26 -71 -57 -46 -48 -61 -58 -100 -64 -69 -11 -134 -32
-161 -51 -17 -12 -30 -14 -48 -7 -13 5 -39 9 -58 9 -48 0 -52 16 -12 53 19 18
44 54 56 82 21 47 21 52 6 90 -9 24 -29 48 -48 60 -26 17 -32 27 -32 55 0 34
1 35 45 40 39 4 47 9 63 40 17 34 17 35 -3 38 -11 2 -30 -4 -42 -12 -30 -21
-50 -20 -81 4 -33 26 -64 26 -72 -2 -5 -15 -1 -26 15 -38 20 -15 21 -22 15
-71 -5 -44 -4 -58 9 -68 20 -17 20 -35 1 -51 -8 -7 -15 -23 -15 -37 0 -35 -18
-63 -39 -63 -10 0 -30 -6 -44 -13 -15 -8 -52 -13 -89 -12 -35 1 -71 -2 -81 -7
-16 -8 -16 -11 4 -38 15 -20 20 -36 15 -55 l-7 -26 -27 18 c-15 11 -44 30 -64
43 -29 19 -38 32 -38 53 0 16 -7 30 -16 34 -13 5 -12 10 9 32 78 86 75 140 -5
91 -42 -25 -48 -25 -48 1 0 69 72 176 102 152 7 -6 30 -13 51 -16 32 -5 37 -3
37 14 0 11 25 49 55 84 30 36 55 70 55 76 0 6 8 9 18 8 33 -3 42 1 42 19 0 31
-22 42 -84 42 l-61 0 -53 57 c-67 71 -67 93 0 137 54 35 58 49 23 72 -13 9
-27 24 -30 35 -4 10 -15 19 -25 19 -11 0 -34 6 -52 14 -37 15 -164 46 -190 46
-46 0 -63 118 -27 177 l22 35 64 -7 63 -7 15 34 c14 31 13 34 -11 56 -15 13
-38 22 -58 22 -21 0 -54 14 -95 40 l-61 40 6 42 c4 24 14 53 22 66 14 21 13
25 -8 47 -12 13 -28 21 -36 18 -8 -3 -14 1 -14 10 0 9 10 17 22 19 24 3 57 56
58 94 1 42 -50 60 -70 24 -8 -15 -21 -20 -50 -20 -24 0 -40 -5 -40 -12 0 -6
-7 -19 -16 -29 -14 -16 -14 -20 2 -44 13 -20 23 -25 40 -21 28 7 37 -13 17
-36 -11 -12 -21 -15 -38 -8 -52 20 -58 -60 -8 -106 l24 -23 -21 -11 c-13 -7
-39 -9 -64 -6 -69 11 -78 -7 -89 -163 -3 -36 27 -50 63 -29 24 14 31 14 40 3
7 -8 9 -27 5 -43 -8 -37 -81 -98 -111 -94 -12 2 -25 -2 -29 -7 -3 -6 -17 -11
-30 -11 -18 0 -25 -7 -30 -29 -8 -37 10 -67 47 -80 20 -7 28 -17 28 -35 0 -19
-12 -31 -62 -59 -35 -19 -79 -38 -98 -41 -49 -10 -99 -37 -106 -58 -10 -33
-48 -32 -82 1 -17 17 -37 31 -45 31 -22 0 -39 -27 -32 -50 8 -24 -16 -28 -35
-5 -17 21 -36 19 -54 -6 -17 -24 -12 -42 21 -83 27 -33 26 -45 -20 -132 -30
-60 -34 -63 -102 -88 -38 -15 -78 -31 -87 -36 -10 -6 -25 -10 -34 -10 -18 0
-43 -27 -44 -47 0 -6 5 -24 10 -39 l11 -27 23 22 c25 24 36 19 36 -16 0 -23 1
-23 86 -20 77 3 89 1 117 -20 17 -13 37 -34 44 -46 17 -31 17 -132 -1 -150
-18 -18 -161 -29 -209 -16 -35 10 -78 54 -91 97 -10 31 -71 32 -81 1 -10 -30
-61 -48 -156 -53 -77 -4 -84 -7 -87 -27 -5 -29 22 -44 71 -40 21 1 54 -6 76
-16 31 -14 40 -25 45 -52 4 -28 0 -40 -26 -70 -39 -44 -74 -56 -105 -35 -13 8
-23 20 -23 28 0 7 -9 21 -19 30 -11 10 -22 28 -25 41 -3 13 -15 26 -25 30 -27
8 -31 25 -21 95 10 74 16 82 80 109 28 12 56 32 64 44 17 25 22 77 11 123 -5
25 -2 37 21 63 22 27 27 41 25 83 -1 28 -6 58 -11 68 -6 10 -10 27 -10 37 0
25 75 98 90 88 17 -10 80 26 80 46 0 14 -14 16 -95 16 -93 0 -96 0 -120 -29
-14 -16 -25 -33 -25 -38 0 -19 -52 -84 -79 -101 -54 -33 -96 7 -56 51 21 23
11 45 -31 69 -34 20 -34 21 -19 45 9 13 19 50 22 80 5 46 2 60 -13 77 -15 17
-16 24 -6 39 17 28 15 57 -4 64 -22 8 -44 -11 -44 -39 0 -12 -6 -28 -14 -34
-25 -21 -36 -67 -21 -88 24 -31 19 -72 -11 -83 -43 -17 -84 -12 -105 13 -24
29 -24 53 1 84 22 28 26 64 9 95 -8 15 -7 32 5 68 9 27 16 57 16 67 0 10 7 26
15 37 10 13 11 24 4 37 -16 31 -47 23 -63 -16 -17 -39 -64 -88 -77 -79 -5 3
-9 29 -9 58 0 31 -5 58 -12 63 -24 19 -63 22 -82 8 -16 -12 -18 -19 -8 -40 9
-19 9 -31 0 -50 -9 -19 -8 -34 2 -66 12 -35 12 -45 -1 -68 -8 -14 -25 -28 -39
-29 -37 -6 -50 -21 -50 -57 0 -46 -9 -65 -31 -65 -10 0 -65 18 -121 40 -57 22
-112 40 -123 40 -11 0 -40 11 -64 25 -33 19 -57 25 -105 25 -65 0 -84 10 -99
53 -5 13 -15 17 -34 15 -27 -3 -28 -5 -28 -64 0 -38 -5 -68 -14 -78 -17 -20
-84 -56 -104 -56 -21 0 -47 33 -58 74 -13 45 -47 65 -84 48 -13 -6 -46 -14
-73 -18 -45 -6 -51 -4 -70 21 -27 34 -38 89 -23 121 15 33 49 31 64 -4 19 -45
54 -29 86 38 26 54 27 55 69 55 26 0 46 6 52 15 8 12 11 12 28 -3 43 -39 77
-7 50 47 -40 80 -42 95 -18 121 20 21 21 27 10 61 -13 39 -97 131 -165 180
-22 16 -43 34 -48 41 -9 15 -71 33 -115 33 -34 0 -140 -48 -161 -73 -17 -22
-107 -32 -137 -16 -13 7 -45 41 -70 75 -38 51 -54 65 -90 75 -40 12 -44 16
-44 46 0 17 5 35 10 38 6 3 10 23 10 43 0 20 7 50 15 66 19 37 19 69 -2 109
-10 20 -15 51 -14 85 3 71 -19 95 -67 75z m173 -2490 c320 -89 584 -319 828
-722 68 -112 159 -294 207 -414 l23 -58 26 23 c14 13 48 43 76 68 314 287 740
533 1067 619 198 52 440 55 599 7 184 -54 322 -138 462 -279 244 -247 376
-538 393 -867 35 -631 -440 -1217 -1414 -1744 -421 -228 -1068 -488 -1560
-626 l-113 -32 -74 56 c-748 563 -1398 1400 -1671 2153 -258 713 -169 1291
247 1603 140 104 342 193 512 226 100 19 301 12 392 -13z m958 -5065 c7 -4 24
-8 38 -8 24 0 51 19 129 92 36 35 64 26 90 -28 12 -24 19 -52 16 -61 -4 -9 1
-27 10 -41 18 -27 7 -42 -32 -42 -11 0 -31 -11 -43 -24 -51 -54 -176 -55 -254
-2 -32 22 -139 50 -182 47 -11 -1 -31 -2 -44 -2 -13 -1 -30 -7 -37 -14 -17
-16 -96 -18 -106 -2 -4 7 -8 31 -8 53 0 33 8 51 38 88 56 70 68 71 185 4 26
-16 56 -28 67 -28 11 0 32 19 51 45 l32 45 20 -58 c10 -31 24 -60 30 -64z"/>
<path d="M7342 10528 c-6 -6 -12 -16 -12 -22 0 -5 -10 -20 -21 -32 -26 -28
-19 -54 15 -54 45 0 72 65 43 103 -10 14 -15 15 -25 5z"/>
<path d="M9765 10516 c-16 -8 -38 -17 -48 -20 -14 -5 -18 -14 -15 -43 2 -31 7
-39 26 -41 31 -5 60 23 68 64 9 48 4 55 -31 40z"/>
<path d="M8402 10490 c-18 -11 -43 -20 -57 -20 -38 0 -63 -42 -70 -118 -9 -88
-18 -119 -72 -230 -37 -75 -43 -95 -33 -107 20 -24 32 -18 90 40 34 35 70 60
94 67 21 7 41 19 44 27 3 9 11 23 19 32 8 10 16 44 18 77 4 67 16 96 45 112
16 9 20 21 20 63 0 79 -32 97 -98 57z"/>
<path d="M8914 10486 c-3 -8 -20 -22 -39 -30 -33 -16 -41 -15 -158 10 -23 5
-34 0 -66 -34 -58 -61 -86 -125 -86 -201 l0 -64 55 -18 c30 -10 62 -19 71 -19
28 0 126 113 133 154 11 55 44 105 75 112 67 13 100 54 71 90 -16 18 -49 18
-56 0z"/>
<path d="M8112 10374 c-28 -19 -28 -45 -1 -70 25 -22 49 -11 64 31 8 22 6 29
-10 41 -24 18 -26 17 -53 -2z"/>
<path d="M9304 10382 c-7 -4 -21 -38 -33 -77 -23 -77 -22 -80 37 -142 23 -25
38 -33 65 -33 33 0 67 -20 67 -40 0 -5 22 -33 49 -62 34 -37 54 -71 66 -108 9
-30 25 -77 37 -105 54 -132 54 -126 15 -197 -55 -98 -75 -247 -39 -293 23 -29
52 -16 52 23 0 27 22 78 58 137 15 24 24 29 49 27 24 -3 35 3 50 23 10 15 30
38 46 52 15 15 27 32 27 38 0 7 9 20 21 30 16 16 19 26 13 60 -7 46 -26 70
-69 92 -40 20 -103 81 -122 118 -10 18 -17 62 -18 115 -2 48 -10 108 -19 134
-9 26 -16 55 -16 66 0 14 -22 30 -81 59 -45 23 -90 41 -101 41 -11 0 -33 11
-50 25 -29 25 -80 33 -104 17z"/>
<path d="M9868 10364 c-15 -32 0 -59 33 -59 26 0 47 40 36 69 -10 26 -56 20
-69 -10z"/>
<path d="M3790 10361 c-19 -10 -59 -21 -89 -24 -70 -8 -98 -28 -127 -90 -38
-82 -27 -157 31 -224 28 -33 37 -37 73 -36 39 2 42 0 61 -41 12 -23 26 -68 32
-99 9 -44 16 -57 28 -55 28 5 38 108 17 175 l-18 55 25 27 c75 79 87 188 33
300 -15 32 -24 34 -66 12z"/>
<path d="M7094 10324 c-9 -35 2 -157 16 -183 13 -25 57 -38 73 -22 8 8 7 28
-6 80 -10 37 -17 72 -15 77 3 11 -42 74 -54 74 -4 0 -11 -12 -14 -26z"/>
<path d="M11750 10254 c-10 -11 -11 -23 -4 -42 7 -21 16 -27 39 -27 32 0 41
18 31 61 -7 28 -46 33 -66 8z"/>
<path d="M7536 10198 c-11 -6 -38 -15 -60 -20 -22 -5 -46 -14 -53 -20 -23 -19
-15 -55 19 -83 29 -24 37 -26 82 -20 61 8 90 25 111 65 16 31 13 50 -8 50 -7
0 -20 9 -30 20 -19 23 -33 24 -61 8z"/>
<path d="M9813 10200 c-15 -6 -23 -18 -23 -34 0 -14 -5 -37 -12 -50 -9 -22 -8
-29 7 -46 23 -25 37 -25 60 0 14 16 26 19 48 14 29 -6 46 6 47 33 0 17 -74 93
-91 92 -8 0 -24 -4 -36 -9z"/>
<path d="M1346 10174 c-21 -20 -22 -18 22 -76 76 -100 94 -119 116 -116 18 3
21 10 21 55 -1 41 -6 58 -25 78 -13 14 -29 25 -36 25 -6 0 -19 11 -28 25 -19
29 -47 32 -70 9z"/>
<path d="M1872 10108 c-20 -20 -14 -65 12 -95 24 -27 25 -28 53 -11 21 12 29
26 31 52 2 26 -1 36 -11 36 -8 0 -20 7 -27 15 -15 18 -42 19 -58 3z"/>
<path d="M6587 10065 c-4 -8 -12 -15 -20 -15 -15 0 -67 -118 -67 -153 0 -13 5
-28 12 -35 15 -15 55 -16 63 -2 4 6 24 22 46 36 33 20 39 30 39 58 0 18 -8 44
-19 57 -10 13 -20 33 -22 43 -5 25 -25 32 -32 11z"/>
<path d="M10163 10008 c-22 -27 -34 -193 -19 -252 11 -45 76 -42 76 4 0 10 6
23 14 29 8 7 17 30 21 52 4 23 20 55 36 74 32 36 36 57 15 74 -12 10 -20 9
-40 -5 -25 -16 -27 -16 -47 10 -22 28 -41 33 -56 14z"/>
<path d="M11242 9934 c-29 -20 -58 -48 -66 -62 -7 -15 -16 -66 -20 -114 l-7
-88 35 0 c31 0 40 6 71 48 19 26 42 63 51 82 9 19 25 46 35 59 25 31 25 31
-13 74 l-33 36 -53 -35z"/>
<path d="M4050 9935 c-7 -8 -19 -15 -27 -15 -35 0 -22 -59 18 -80 29 -16 69
11 69 46 0 54 -33 81 -60 49z"/>
<path d="M4186 9865 c-23 -35 -22 -121 3 -134 22 -12 54 18 66 64 11 41 7 57
-18 77 -29 23 -32 22 -51 -7z"/>
<path d="M10400 9864 c-81 -35 -104 -91 -50 -119 40 -21 54 -19 88 10 17 14
35 25 41 25 6 0 20 -18 31 -40 37 -72 78 -78 135 -20 34 34 39 46 39 87 1 47
0 48 -32 51 -20 2 -45 -4 -65 -17 -27 -17 -35 -18 -50 -6 -11 8 -24 12 -31 9
-7 -3 -21 4 -31 16 -21 24 -29 24 -75 4z"/>
<path d="M3380 9838 c-25 -41 -25 -54 0 -75 15 -13 20 -30 20 -70 0 -64 23
-93 73 -93 41 0 64 23 82 82 7 23 19 55 26 71 16 35 -3 77 -36 77 -13 0 -28 7
-35 15 -9 11 -22 14 -41 10 -15 -3 -30 -1 -34 4 -12 20 -35 11 -55 -21z"/>
<path d="M9248 9846 c-23 -51 28 -102 61 -62 7 8 11 30 9 48 -2 28 -7 34 -30
36 -22 3 -30 -2 -40 -22z"/>
<path d="M6975 9789 c-22 -17 -42 -35 -44 -41 -5 -16 20 -28 61 -28 45 0 74
34 64 75 -8 33 -31 31 -81 -6z"/>
<path d="M9995 9764 c-16 -8 -38 -23 -47 -31 -21 -19 -24 -52 -5 -57 6 -2 30
-9 51 -16 37 -12 41 -11 58 10 24 30 24 86 -1 100 -24 12 -20 13 -56 -6z"/>
<path d="M7118 9713 c-78 -83 -78 -83 -55 -101 10 -8 22 -6 45 8 39 24 44 36
40 85 l-3 37 -27 -29z"/>
<path d="M1033 9723 c-7 -2 -13 -15 -13 -29 0 -29 52 -61 68 -41 38 48 2 94
-55 70z"/>
<path d="M4446 9718 c-21 -68 -15 -98 19 -98 31 0 37 12 29 55 -7 37 -41 67
-48 43z"/>
<path d="M8597 9693 c-33 -34 -39 -36 -58 -25 -15 10 -24 11 -32 3 -6 -6 -21
-11 -33 -11 -22 0 -34 -17 -34 -51 0 -22 49 -95 69 -104 20 -8 61 22 61 45 0
11 4 20 8 20 5 0 17 17 26 38 10 21 31 46 47 56 21 13 29 24 27 39 -5 36 -39
32 -81 -10z"/>
<path d="M4573 9706 c-40 -19 -23 -106 21 -106 25 0 51 43 44 76 -5 27 -39 43
-65 30z"/>
<path d="M10852 9698 c-7 -7 -12 -17 -12 -23 0 -7 -9 -20 -20 -30 -25 -22 -25
-37 -2 -58 45 -41 122 1 122 66 0 40 -15 57 -50 57 -14 0 -31 -5 -38 -12z"/>
<path d="M1913 9684 c-4 -10 10 -32 40 -62 47 -49 100 -137 111 -184 4 -19 13
-28 26 -28 24 0 26 -9 4 -24 -20 -15 -8 -45 22 -52 40 -10 54 11 54 80 0 62
-26 126 -51 126 -7 0 -38 28 -71 63 -32 34 -66 70 -75 80 -21 21 -52 22 -60 1z"/>
<path d="M11383 9633 c-37 -36 -143 -135 -235 -220 -162 -150 -188 -183 -152
-197 10 -4 35 14 77 58 34 35 72 66 84 70 12 4 25 16 28 27 4 10 23 28 43 39
20 11 55 42 77 70 22 27 52 55 68 61 15 6 30 22 33 36 4 13 19 30 34 38 33 17
43 40 30 66 -6 10 -12 19 -15 19 -2 0 -34 -30 -72 -67z"/>
<path d="M3876 9671 c-26 -29 -32 -93 -11 -114 18 -19 60 -14 85 9 13 12 13
19 0 55 -8 23 -24 48 -36 56 -18 12 -23 11 -38 -6z"/>
<path d="M2495 9660 c-3 -5 -21 -10 -40 -10 -43 0 -50 -12 -35 -64 20 -70 34
-91 60 -91 28 0 79 66 80 103 0 45 -47 91 -65 62z"/>
<path d="M7638 9596 c-48 -60 -30 -121 30 -102 21 7 62 66 62 89 0 16 -36 47
-55 47 -5 0 -22 -16 -37 -34z"/>
<path d="M6780 9571 c-10 -32 -10 -43 1 -67 21 -42 42 -41 62 4 22 50 21 57
-5 82 -31 29 -43 25 -58 -19z"/>
<path d="M7029 9518 c-42 -46 -79 -101 -79 -117 0 -42 42 -51 106 -25 48 20
52 26 60 93 5 40 3 55 -7 62 -25 15 -59 10 -80 -13z"/>
<path d="M4542 9491 c-9 -17 -27 -35 -39 -40 -36 -17 -27 -100 13 -124 8 -4
21 -22 30 -40 25 -49 55 -77 82 -77 33 0 102 71 102 106 0 48 -70 154 -103
154 -10 0 -22 11 -27 25 -13 33 -37 32 -58 -4z"/>
<path d="M8006 9384 c-21 -20 -20 -37 3 -65 23 -28 46 -20 71 24 12 21 12 28
1 41 -17 20 -55 21 -75 0z"/>
<path d="M2762 9358 c-6 -6 -12 -18 -12 -24 0 -7 -10 -20 -22 -28 -13 -9 -28
-33 -34 -53 -6 -20 -18 -42 -28 -47 -25 -16 -56 25 -56 75 0 36 -2 39 -28 39
-38 0 -62 -28 -62 -72 0 -62 -20 -66 -104 -23 -85 43 -126 43 -126 0 0 -19 10
-30 39 -45 49 -25 57 -37 38 -58 -8 -9 -17 -29 -21 -44 -4 -17 -18 -34 -37
-43 -24 -13 -30 -22 -27 -43 2 -21 20 -38 78 -78 91 -61 95 -78 28 -114 -108
-58 -126 -108 -63 -173 20 -21 42 -37 48 -37 23 0 37 -23 37 -61 0 -47 23 -71
63 -67 25 2 32 9 39 33 7 28 34 60 100 119 18 16 26 31 22 41 -4 10 2 24 15
36 17 16 21 31 21 83 0 48 4 65 15 70 8 3 15 14 15 25 0 27 18 36 38 18 25
-22 74 -30 95 -15 17 13 17 16 -4 62 -29 67 -36 153 -15 194 19 36 21 133 4
165 -6 12 -12 33 -12 47 -1 27 -25 37 -44 18z"/>
<path d="M9923 9331 c-23 -4 -48 -13 -57 -20 -32 -27 -13 -81 34 -96 25 -8 25
-22 1 -43 -10 -10 -22 -29 -25 -45 -6 -23 0 -33 31 -62 21 -19 45 -35 53 -35
8 0 36 14 63 30 42 27 47 34 47 68 0 48 -8 59 -44 64 -38 4 -45 25 -12 38 30
11 43 51 27 86 -11 26 -33 29 -118 15z"/>
<path d="M9591 9244 c-37 -31 -39 -47 -9 -68 30 -21 44 -20 68 4 26 26 26 66
1 80 -26 13 -25 14 -60 -16z"/>
<path d="M3402 9197 c-26 -73 -4 -120 38 -82 34 31 23 115 -15 115 -6 0 -16
-15 -23 -33z"/>
<path d="M7958 9219 c-27 -15 -22 -37 12 -54 42 -22 83 -19 108 8 12 13 22 29
22 35 0 15 -26 16 -35 2 -9 -14 -42 -12 -68 4 -16 11 -27 12 -39 5z"/>
<path d="M11152 9133 c-51 -18 -75 -54 -51 -78 13 -14 21 -9 63 40 26 30 44
54 39 54 -4 -1 -27 -8 -51 -16z"/>
<path d="M1912 9118 c-7 -7 -12 -17 -12 -23 0 -20 -67 -85 -89 -85 -14 0 -25
-11 -36 -36 -8 -20 -20 -34 -26 -32 -7 2 -28 -10 -46 -27 -40 -37 -42 -73 -5
-91 12 -6 33 -21 46 -33 16 -15 35 -21 67 -21 59 -1 127 -32 134 -63 7 -27 83
-71 106 -62 8 3 27 24 44 46 16 21 39 46 52 54 13 9 23 24 23 35 0 11 5 29 11
39 18 28 3 67 -36 90 -22 12 -42 36 -51 58 -9 20 -41 65 -72 100 -57 63 -85
76 -110 51z"/>
<path d="M3946 9086 c-20 -23 -36 -48 -36 -54 0 -6 9 -27 21 -46 25 -42 52
-46 75 -11 22 33 37 32 51 -5 14 -38 44 -39 72 -4 45 57 13 114 -64 114 -37 0
-45 3 -45 19 0 15 -18 31 -35 31 -2 0 -20 -20 -39 -44z"/>
<path d="M3027 9103 c-24 -23 30 -113 67 -113 31 0 56 -30 56 -69 0 -27 -7
-36 -44 -58 -72 -44 -74 -100 -3 -105 27 -2 41 -7 40 -15 -2 -7 -4 -18 -5 -25
-2 -6 14 -20 34 -30 50 -24 61 -49 53 -113 -5 -41 -3 -56 10 -69 9 -9 20 -16
24 -16 14 0 31 25 31 46 0 29 21 45 49 37 46 -12 54 43 16 115 -14 27 -29 80
-36 127 -26 189 -62 251 -152 262 -23 3 -54 12 -69 19 -29 15 -61 18 -71 7z"/>
<path d="M3526 9055 c-39 -36 -33 -95 9 -95 35 0 48 23 40 70 -9 51 -16 55
-49 25z"/>
<path d="M1570 9028 c-29 -11 -40 -25 -40 -54 0 -33 25 -49 55 -36 21 10 25
19 25 51 0 46 -6 52 -40 39z"/>
<path d="M9731 9021 c-11 -7 -8 -13 13 -26 30 -20 46 -13 30 12 -13 21 -25 25
-43 14z"/>
<path d="M10950 8999 c0 -24 23 -21 28 4 2 10 -3 17 -12 17 -10 0 -16 -9 -16
-21z"/>
<path d="M1380 8977 c0 -8 -7 -28 -16 -45 -18 -38 -15 -91 7 -105 39 -24 114
29 125 90 8 42 -14 66 -52 57 -12 -3 -25 -1 -28 5 -10 16 -36 14 -36 -2z"/>
<path d="M3397 8953 c-12 -11 -7 -69 7 -88 13 -18 15 -18 40 -2 31 21 33 36 5
71 -20 25 -39 33 -52 19z"/>
<path d="M4020 8933 c-20 -3 -28 -13 -38 -45 -17 -55 -4 -67 42 -38 30 18 36
27 36 56 0 19 -3 33 -7 33 -5 -1 -19 -4 -33 -6z"/>
<path d="M4515 8930 c-11 -4 -45 -6 -76 -3 -51 5 -58 3 -90 -25 -20 -17 -44
-49 -54 -72 -17 -38 -17 -41 -1 -59 10 -10 32 -22 51 -25 18 -4 45 -16 60 -28
22 -17 30 -19 49 -8 13 6 32 11 42 9 10 -1 31 3 47 9 24 10 27 17 27 57 0 25
5 53 11 64 7 11 9 32 5 54 -7 39 -26 46 -71 27z"/>
<path d="M2246 8893 c-8 -16 -17 -45 -21 -66 -6 -33 -5 -37 14 -37 29 0 53 41
49 86 -4 47 -22 54 -42 17z"/>
<path d="M2850 8691 c-8 -5 -31 -11 -51 -15 -39 -7 -58 -23 -83 -73 -22 -44
-20 -70 9 -98 20 -21 34 -25 80 -25 55 0 56 0 85 47 36 57 39 108 9 147 -22
28 -26 30 -49 17z"/>
<path d="M4378 8659 c-24 -13 -23 -46 1 -59 15 -7 24 -5 41 8 19 16 21 22 11
40 -13 24 -27 27 -53 11z"/>
<path d="M9992 8654 c-57 -29 -55 -96 4 -102 50 -5 132 80 97 101 -26 15 -71
15 -101 1z"/>
<path d="M2228 8575 c-34 -29 -36 -67 -7 -96 l21 -21 24 23 c24 22 32 67 18
103 -8 22 -24 20 -56 -9z"/>
<path d="M4783 8540 c-30 -12 -34 -80 -5 -80 58 1 79 27 54 68 -16 24 -17 25
-49 12z"/>
<path d="M2989 8498 c-11 -26 -25 -36 -75 -52 -34 -12 -68 -26 -75 -32 -8 -6
-24 -15 -36 -18 -25 -8 -30 -28 -10 -44 26 -22 111 -44 149 -39 21 3 41 1 44
-4 9 -15 73 -39 89 -33 27 11 36 62 24 138 -17 105 -22 116 -62 116 -28 0 -36
-5 -48 -32z"/>
<path d="M3427 8482 c-10 -10 -17 -25 -17 -33 0 -8 -7 -23 -15 -33 -23 -30
-18 -57 17 -95 29 -33 32 -34 57 -20 23 13 26 22 29 72 2 47 -1 59 -18 74 -11
10 -20 25 -20 35 0 23 -13 23 -33 0z"/>
<path d="M2578 8453 c-41 -10 -25 -93 22 -108 12 -4 23 -21 30 -43 6 -24 20
-43 39 -54 20 -11 42 -41 65 -86 31 -62 33 -72 21 -88 -8 -11 -15 -27 -15 -36
0 -23 58 -88 74 -82 7 3 26 -2 42 -11 67 -35 103 -6 84 66 -14 52 -51 108 -87
133 -33 21 -208 242 -222 279 -10 26 -26 35 -53 30z"/>
<path d="M1732 8383 c-34 -5 -48 -22 -38 -48 4 -12 10 -13 25 -5 16 8 26 5 50
-16 26 -22 37 -24 74 -19 33 5 57 1 109 -20 99 -40 150 -25 134 39 -7 27 -9
28 -55 21 -36 -5 -64 -1 -112 15 -35 12 -68 26 -73 31 -10 9 -50 10 -114 2z"/>
<path d="M10721 8209 c-13 -5 -39 -23 -58 -39 -32 -29 -36 -30 -107 -24 -62 6
-74 4 -79 -10 -4 -9 -13 -16 -21 -16 -26 0 -76 -35 -74 -50 4 -19 103 -27 124
-9 11 9 18 9 29 -1 13 -11 21 -9 45 8 16 12 33 22 38 22 5 0 23 -16 41 -35 34
-37 45 -41 85 -25 50 19 66 45 66 110 0 48 -4 61 -19 70 -23 12 -38 12 -70 -1z"/>
<path d="M3378 8165 c-21 -20 -38 -41 -38 -49 0 -21 26 -38 52 -34 21 3 23 -2
26 -40 4 -51 18 -60 61 -37 28 14 31 20 31 65 0 28 -4 50 -10 50 -5 0 -17 15
-26 33 -30 58 -45 59 -96 12z"/>
<path d="M11594 8171 c-27 -16 -107 -89 -356 -322 -37 -35 -49 -53 -46 -70 4
-31 32 -35 64 -10 15 12 35 21 45 21 10 0 78 56 152 124 73 68 149 131 169
139 32 14 37 21 43 61 12 78 -9 95 -71 57z"/>
<path d="M1216 8106 c-19 -20 -40 -36 -45 -36 -21 0 -43 -61 -36 -101 9 -53
40 -74 100 -66 61 9 83 24 111 79 28 56 29 66 7 90 -9 10 -21 28 -27 41 -19
38 -68 35 -110 -7z"/>
<path d="M2998 7895 c-9 -20 -8 -31 2 -50 15 -27 30 -31 48 -13 18 18 15 53
-6 71 -25 23 -30 21 -44 -8z"/>
<path d="M2332 7851 c-10 -6 -11 -22 -2 -76 6 -38 13 -72 16 -77 11 -17 43 -7
64 20 51 64 -13 174 -78 133z"/>
<path d="M2010 7810 c-16 -30 -1 -99 25 -116 40 -26 74 7 77 74 2 52 -6 62
-52 62 -29 0 -42 -5 -50 -20z"/>
<path d="M11935 7774 c-55 -31 -134 -74 -175 -97 -105 -57 -130 -76 -130 -98
0 -14 7 -19 26 -19 33 0 55 12 129 70 81 63 194 136 225 145 37 11 71 35 65
45 -12 19 -41 9 -140 -46z"/>
<path d="M10601 7744 c-22 -28 -19 -50 9 -59 26 -8 49 4 56 31 14 55 -29 74
-65 28z"/>
<path d="M1572 7697 c-27 -15 -64 -69 -80 -115 -13 -39 -4 -68 32 -99 14 -12
34 -40 46 -63 20 -38 22 -40 68 -40 104 1 172 61 172 154 0 69 -27 108 -102
145 -66 33 -100 38 -136 18z"/>
<path d="M3005 7690 c-4 -6 -1 -24 7 -41 11 -25 18 -29 43 -27 38 4 44 29 14
57 -24 22 -54 27 -64 11z"/>
<path d="M2137 7683 c-12 -12 -7 -60 7 -72 31 -26 58 16 40 63 -6 16 -35 22
-47 9z"/>
<path d="M10387 7652 c-25 -27 -32 -76 -13 -91 25 -21 50 -9 70 33 l19 39 -23
19 c-28 22 -33 22 -53 0z"/>
<path d="M11095 7591 c-3 -5 -1 -12 5 -16 5 -3 10 -19 10 -36 0 -22 -5 -29
-19 -29 -32 0 -34 -17 -8 -74 27 -58 26 -66 -7 -66 -12 0 -30 -7 -40 -15 -11
-8 -26 -15 -34 -15 -7 0 -29 -12 -47 -26 -42 -32 -125 -64 -166 -64 -22 0 -40
9 -59 30 -35 37 -73 39 -138 6 -71 -36 -76 -46 -83 -160 -7 -115 2 -153 38
-162 53 -14 96 34 149 164 21 53 25 57 55 57 23 0 33 -5 35 -18 1 -9 14 -31
28 -47 14 -17 23 -37 20 -45 -3 -8 -36 -25 -72 -39 -40 -15 -93 -47 -131 -78
-35 -29 -94 -69 -130 -89 -75 -40 -104 -77 -82 -103 12 -15 16 -15 31 -1 9 8
22 15 29 15 6 0 21 16 32 35 17 27 24 33 34 25 19 -15 66 10 129 70 62 57 125
100 147 100 11 0 19 -12 24 -37 8 -47 40 -99 71 -120 22 -14 26 -14 42 0 10
10 27 14 39 11 16 -5 25 1 36 23 8 15 29 38 45 50 30 22 82 110 82 138 0 7
-11 27 -25 44 -19 21 -36 31 -63 33 -36 3 -37 4 -34 38 1 19 4 53 5 75 l2 40
50 2 c58 3 71 -5 108 -69 15 -26 35 -49 46 -53 30 -9 51 5 51 35 0 16 5 32 11
35 6 4 8 13 5 21 -3 8 1 14 8 14 7 0 19 7 26 15 7 8 21 15 32 15 35 0 32 29
-11 75 -22 24 -43 56 -46 72 -4 15 -8 38 -11 51 -3 15 -12 22 -28 22 -29 0
-54 -27 -62 -68 -6 -27 -11 -32 -35 -32 -21 0 -29 5 -29 18 0 10 -6 27 -14 38
-10 13 -13 33 -9 62 5 38 4 42 -15 42 -11 0 -23 -4 -27 -9z"/>
<path d="M11386 7558 c-24 -34 -19 -75 16 -129 31 -48 44 -56 98 -62 27 -2 27
-2 16 60 -7 35 -12 42 -35 45 -23 3 -27 9 -32 46 -8 61 -36 79 -63 40z"/>
<path d="M3040 7516 c0 -14 5 -28 10 -31 6 -4 8 -21 4 -39 -3 -20 0 -47 10
-71 9 -20 16 -60 16 -87 0 -34 4 -50 15 -54 22 -9 44 13 51 51 4 25 13 36 33
43 36 13 61 39 61 63 0 24 -15 24 -47 -1 -14 -11 -36 -20 -49 -20 -24 0 -28 8
-39 75 -9 62 -25 95 -46 95 -13 0 -19 -7 -19 -24z"/>
<path d="M2278 7511 c-92 -10 -122 -58 -88 -141 l13 -33 70 7 c84 8 98 -1 122
-78 29 -91 37 -106 55 -106 10 0 20 6 23 13 8 21 -16 127 -29 127 -6 0 -14 7
-18 15 -7 19 27 55 53 55 30 0 65 34 58 55 -6 14 -14 16 -45 11 -82 -14 -85
-14 -95 24 -11 43 -25 60 -46 59 -9 -1 -42 -5 -73 -8z m-34 -63 c-4 -13 -8
-33 -8 -46 -1 -12 -4 -22 -8 -22 -5 0 -12 0 -17 0 -19 0 -18 41 1 65 24 31 42
33 32 3z"/>
<path d="M2566 7348 c-20 -28 -20 -52 -1 -68 13 -10 19 -10 35 5 25 23 26 61
1 75 -16 8 -23 6 -35 -12z"/>
<path d="M2680 7249 c0 -23 22 -49 41 -49 25 0 35 25 19 45 -14 17 -60 20 -60
4z"/>
<path d="M1968 7045 c-3 -3 -37 -7 -76 -8 -52 -2 -77 -8 -92 -22 -26 -24 -26
-75 0 -108 11 -14 27 -42 35 -61 27 -63 85 -84 103 -36 4 12 19 27 32 33 18 9
25 21 26 42 0 17 4 45 8 62 11 49 -15 119 -36 98z"/>
<path d="M11714 6861 c-17 -10 -41 -36 -54 -56 -22 -36 -50 -152 -50 -208 0
-41 38 -174 67 -234 47 -98 151 -168 166 -112 7 27 -4 57 -37 96 -37 44 -56
95 -56 150 0 40 5 52 32 80 30 31 33 41 44 136 l11 102 -35 33 c-40 37 -47 38
-88 13z"/>
<path d="M11463 6622 c-24 -4 -63 -46 -63 -67 0 -15 18 -30 47 -39 31 -10 63
25 63 68 0 36 -11 44 -47 38z"/>
<path d="M11281 6367 c-20 -20 -12 -53 19 -75 18 -14 30 -32 30 -45 0 -12 7
-33 16 -45 19 -28 4 -52 -32 -52 -12 0 -29 -7 -38 -15 -42 -43 -31 -110 30
-176 l46 -48 -7 -88 c-6 -75 -5 -91 9 -102 19 -16 84 -10 144 14 44 18 51 31
77 131 24 98 20 161 -17 240 -17 38 -33 71 -35 73 -1 2 -20 7 -40 10 -28 5
-41 13 -51 34 -7 15 -25 40 -38 54 -14 15 -33 40 -41 54 -20 34 -56 52 -72 36z"/>
<path d="M2744 6330 c-4 -16 -10 -30 -15 -30 -14 0 -10 -59 6 -95 9 -17 27
-38 40 -45 22 -12 28 -11 51 11 23 21 25 29 19 64 -4 22 -7 51 -7 65 0 34 -25
60 -60 60 -24 0 -30 -5 -34 -30z"/>
<path d="M2270 6335 c-52 -7 -96 -14 -97 -14 -2 -1 -3 -14 -3 -31 0 -18 11
-42 30 -63 31 -35 30 -47 -2 -47 -34 0 -32 -29 3 -67 49 -50 76 -62 133 -56
l48 6 71 -76 c84 -87 107 -104 178 -122 63 -17 96 -6 79 25 -8 15 -21 20 -53
20 -52 0 -94 25 -131 78 -31 46 -29 67 8 82 32 12 36 21 39 79 2 58 -21 91
-65 91 -22 0 -28 5 -28 20 0 33 -27 77 -52 84 -29 7 -41 7 -158 -9z"/>
<path d="M10599 6283 c-92 -6 -114 -55 -53 -116 37 -37 96 -36 180 3 54 25 64
33 64 55 0 14 -9 34 -20 45 -21 21 -32 21 -171 13z"/>
<path d="M1952 6246 c-6 -14 -22 -26 -40 -29 -16 -3 -37 -13 -46 -22 -54 -54
46 -140 133 -115 46 13 69 36 82 83 15 55 5 83 -32 96 -52 18 -84 14 -97 -13z"/>
<path d="M2884 6149 c-19 -21 -19 -21 21 -55 21 -19 49 -37 62 -40 24 -6 53
10 53 30 -1 14 -40 58 -68 74 -31 17 -46 15 -68 -9z"/>
<path d="M3136 6107 c-35 -26 -31 -157 4 -157 6 0 19 9 30 20 22 22 28 97 10
131 -13 23 -20 24 -44 6z"/>
<path d="M10528 6050 c-20 -11 -40 -24 -43 -30 -23 -37 49 -83 100 -66 48 17
55 25 55 60 0 58 -43 72 -112 36z"/>
<path d="M2680 6037 c-31 -16 -37 -43 -12 -56 41 -22 90 20 62 54 -15 18 -18
18 -50 2z"/>
<path d="M11955 6031 c-34 -5 -40 -10 -43 -32 -2 -15 5 -32 17 -43 18 -17 25
-17 65 -6 35 10 52 10 82 0 69 -23 291 5 302 38 3 9 -35 12 -161 12 -149 0
-167 2 -190 20 -14 11 -27 19 -29 19 -1 -1 -21 -5 -43 -8z"/>
<path d="M2055 6018 c-29 -17 -35 -28 -35 -75 0 -69 -16 -91 -76 -109 -63 -18
-107 -62 -102 -103 3 -25 4 -26 70 -23 l67 2 3 -37 c6 -71 61 -51 93 32 9 25
20 45 25 45 14 0 100 -101 100 -119 0 -24 36 -78 65 -97 24 -16 27 -16 45 1
11 10 23 15 27 11 11 -11 21 -150 23 -316 4 -288 15 -359 55 -346 6 2 11 96
12 252 1 137 3 276 4 309 2 91 -6 197 -19 228 -7 16 -12 47 -12 70 0 91 -55
163 -186 248 -65 41 -118 50 -159 27z"/>
<path d="M10205 5948 c-4 -15 -2 -78 3 -78 16 0 62 38 62 50 0 33 -55 57 -65
28z"/>
<path d="M9927 5915 c-15 -14 -37 -25 -47 -25 -13 0 -22 -9 -26 -25 -10 -38
57 -101 116 -110 68 -10 86 10 82 87 -2 32 -57 98 -81 98 -9 0 -29 -12 -44
-25z"/>
<path d="M1625 5906 c-13 -9 -18 -25 -17 -51 2 -55 14 -61 52 -28 25 23 31 34
26 51 -10 31 -39 44 -61 28z"/>
<path d="M2457 5852 c-25 -28 -21 -49 10 -55 32 -6 44 7 41 43 -4 31 -29 37
-51 12z"/>
<path d="M11812 5770 c-37 -35 -43 -45 -38 -68 7 -27 39 -62 59 -62 16 0 87
82 94 109 8 33 -8 55 -43 59 -22 2 -39 -7 -72 -38z"/>
<path d="M2870 5766 c0 -22 6 -36 16 -40 26 -10 42 -7 48 10 9 23 -20 64 -44
64 -16 0 -20 -7 -20 -34z"/>
<path d="M9714 5782 c-21 -14 -33 -46 -23 -64 12 -22 61 -48 90 -48 26 0 48
26 49 58 0 38 -82 77 -116 54z"/>
<path d="M10119 5780 c-3 -19 -5 -25 -17 -46 -9 -18 -9 -24 3 -34 12 -10 21
-8 46 6 64 38 66 84 4 84 -19 0 -36 -4 -36 -10z"/>
<path d="M10436 5745 c-49 -45 -31 -64 104 -112 108 -38 210 -28 210 21 0 27
-38 49 -76 43 -19 -3 -61 -1 -92 4 -44 8 -62 17 -80 40 -28 35 -32 36 -66 4z"/>
<path d="M3862 5734 c-8 -15 -25 -24 -52 -28 -22 -3 -57 -9 -79 -12 l-39 -6 0
-68 c-1 -56 3 -71 20 -86 11 -11 33 -44 49 -75 29 -59 42 -69 87 -69 34 0 139
81 148 114 6 25 -29 106 -45 106 -5 0 -14 14 -20 32 -6 18 -20 41 -30 53 -11
11 -21 29 -23 40 -4 20 -4 19 -16 -1z"/>
<path d="M1695 5732 c-3 -3 -5 -14 -5 -24 0 -11 -7 -26 -15 -34 -21 -21 -19
-60 5 -84 27 -27 46 -25 81 9 23 24 29 38 29 75 0 25 -5 48 -12 53 -15 9 -75
12 -83 5z"/>
<path d="M1165 5698 c-15 -11 -39 -21 -53 -22 -24 -1 -27 -5 -25 -35 4 -91
138 -91 158 0 7 33 -16 79 -39 79 -7 0 -26 -10 -41 -22z"/>
<path d="M10392 5638 c-15 -15 -16 -45 -1 -54 6 -3 22 -30 34 -59 26 -58 69
-94 94 -78 9 5 21 25 27 43 6 18 19 39 28 46 39 28 -5 74 -72 74 -19 0 -45 9
-59 20 -30 23 -35 24 -51 8z"/>
<path d="M11905 5588 c-26 -20 -27 -24 -23 -96 4 -87 17 -102 86 -102 67 0
102 23 102 68 0 27 -29 121 -43 140 -16 20 -91 15 -122 -10z"/>
<path d="M1971 5590 c-69 -10 -120 -56 -128 -117 -5 -36 -2 -43 21 -58 36 -24
105 -15 156 19 37 24 40 30 40 70 0 47 -14 97 -27 95 -5 -1 -32 -5 -62 -9z"/>
<path d="M11123 5588 c-16 -20 -23 -52 -15 -65 4 -7 37 -20 72 -29 36 -8 81
-26 100 -39 24 -16 43 -22 63 -18 15 3 34 0 42 -7 8 -6 18 -9 23 -6 5 3 24 -3
43 -13 19 -10 61 -24 94 -31 33 -6 75 -17 93 -23 30 -10 36 -9 48 8 8 11 14
31 12 44 -3 20 -14 28 -71 47 -37 13 -92 37 -121 53 -30 18 -68 31 -86 31 -18
0 -56 6 -84 14 -28 8 -76 19 -106 26 -30 6 -64 13 -76 16 -11 3 -25 0 -31 -8z"/>
<path d="M3466 5501 c-3 -4 3 -23 12 -41 12 -24 28 -36 57 -45 22 -6 66 -26
97 -44 62 -35 90 -32 104 11 8 27 -18 48 -61 48 -17 0 -40 7 -51 15 -10 8 -40
15 -66 15 -37 0 -48 4 -53 19 -6 21 -31 35 -39 22z"/>
<path d="M10954 5485 c-10 -24 3 -44 40 -62 34 -16 37 -16 56 2 29 26 25 44
-15 61 -44 18 -74 18 -81 -1z"/>
<path d="M2915 5420 c-49 -11 -133 -21 -185 -22 -91 -3 -95 -4 -98 -26 -5 -35
16 -55 52 -47 17 3 50 6 73 5 23 0 44 4 48 10 3 5 24 10 47 10 25 0 51 8 71
23 25 17 43 21 82 19 139 -8 149 -7 153 9 7 37 -115 46 -243 19z"/>
<path d="M3888 5336 c-33 -12 -36 -36 -9 -60 29 -26 55 -17 59 20 4 39 -14 54
-50 40z"/>
<path d="M1882 5278 c-23 -23 -12 -37 34 -44 51 -7 69 3 59 35 -5 16 -15 21
-44 21 -20 0 -42 -5 -49 -12z"/>
<path d="M3338 5199 c-57 -42 -22 -97 41 -64 39 20 57 51 40 71 -16 20 -49 17
-81 -7z"/>
<path d="M3687 5172 c-35 -36 -34 -53 3 -80 35 -26 52 -27 85 -6 38 25 35 78
-5 99 -40 21 -52 19 -83 -13z"/>
<path d="M3091 5164 c-21 -25 -25 -25 -119 -20 -182 9 -206 8 -266 -9 -27 -8
-62 -15 -78 -15 -32 0 -35 -10 -10 -33 21 -20 72 -22 122 -6 19 6 108 14 197
18 138 5 164 9 182 25 12 11 21 27 21 36 0 29 -26 30 -49 4z"/>
<path d="M1904 5125 c-4 -9 0 -23 9 -32 21 -21 49 -9 45 19 -4 28 -45 38 -54
13z"/>
<path d="M12435 5019 c-16 -5 -109 -14 -205 -19 -130 -8 -198 -17 -266 -35
-110 -30 -129 -31 -177 -6 -29 15 -44 17 -79 9 -24 -5 -84 -13 -135 -18 -108
-12 -135 -21 -180 -60 -18 -17 -53 -40 -76 -51 -47 -24 -57 -35 -57 -65 0 -29
23 -36 63 -20 64 27 174 48 297 56 69 4 132 11 140 14 8 4 32 -2 51 -12 l37
-19 46 34 c26 19 46 41 46 52 0 10 6 23 13 29 18 15 216 43 300 41 39 0 88 4
107 10 19 6 58 11 86 11 54 0 81 17 70 45 -6 17 -35 18 -81 4z"/>
<path d="M3633 4959 c-30 -45 -24 -71 16 -77 16 -3 25 5 36 32 36 87 -2 120
-52 45z"/>
<path d="M2563 4958 c-13 -6 -23 -14 -23 -18 0 -15 30 -31 52 -28 17 2 23 10
23 28 0 28 -19 34 -52 18z"/>
<path d="M11850 4729 c-19 -5 -89 -8 -155 -7 -118 3 -120 3 -123 -19 -6 -40
33 -48 130 -29 46 9 136 21 202 26 117 10 136 14 136 29 0 11 -149 11 -190 0z"/>
<path d="M3405 4620 c-3 -5 -17 -10 -31 -10 -31 0 -31 -20 1 -50 20 -19 27
-21 40 -10 8 7 15 28 15 46 0 33 -12 45 -25 24z"/>
<path d="M10883 4585 c-17 -7 -36 -22 -42 -34 -13 -24 -14 -61 -2 -61 5 0 13
-9 16 -21 6 -19 12 -20 58 -14 87 11 130 78 85 132 -14 17 -75 16 -115 -2z"/>
<path d="M10351 4541 c-12 -16 -37 -39 -56 -51 -45 -28 -50 -66 -7 -56 74 19
79 19 85 -3 6 -23 34 -23 147 -2 82 16 118 69 63 93 -16 7 -36 19 -46 27 -14
12 -24 13 -47 4 -15 -6 -32 -7 -37 -3 -4 4 -24 10 -45 14 -32 6 -39 3 -57 -23z"/>
<path d="M11611 4539 c-12 -12 -20 -28 -17 -36 3 -8 6 -18 6 -23 0 -11 29 -40
41 -40 12 0 39 66 39 96 0 31 -37 33 -69 3z"/>
<path d="M11137 4518 c-27 -10 -44 -45 -34 -72 6 -16 57 -31 68 -19 4 4 10 29
14 56 8 51 4 54 -48 35z"/>
<path d="M2763 4483 c-51 -2 -93 -8 -93 -12 0 -15 60 -23 240 -32 96 -5 218
-12 270 -15 128 -8 175 10 134 51 -16 16 -74 17 -349 4 -16 -1 -48 1 -70 3
-22 3 -82 3 -132 1z"/>
<path d="M9667 4440 c-9 -11 -23 -20 -31 -20 -43 0 -15 -85 47 -142 48 -43 57
-45 82 -18 12 14 16 27 11 47 -4 15 -11 45 -15 65 -17 79 -59 109 -94 68z"/>
<path d="M9864 4406 c-3 -8 2 -26 11 -40 14 -21 20 -24 37 -15 31 16 21 63
-15 67 -17 2 -29 -2 -33 -12z"/>
<path d="M10150 4376 c-11 -11 -13 -46 -4 -70 10 -26 48 -18 82 17 47 48 43
62 -18 62 -28 0 -55 -4 -60 -9z"/>
<path d="M1866 4361 c-4 -6 -4 -11 1 -11 4 0 60 -7 123 -15 63 -9 153 -18 200
-21 47 -3 97 -10 112 -16 19 -7 37 -7 60 1 29 11 35 9 51 -10 16 -20 24 -21
91 -16 57 5 77 3 86 -8 9 -10 31 -12 98 -8 65 4 98 1 132 -11 37 -13 57 -14
114 -5 50 8 74 8 90 0 13 -8 68 -11 151 -9 l130 3 3 27 c5 40 -29 58 -109 58
-36 0 -90 -4 -119 -10 -46 -9 -57 -8 -86 11 -29 18 -39 19 -67 10 -25 -9 -58
-9 -123 0 -49 6 -143 11 -209 10 -111 -2 -398 10 -626 25 -67 5 -98 3 -103 -5z"/>
<path d="M11825 4310 c-64 -42 -86 -108 -44 -131 24 -12 97 -6 129 11 29 16
25 55 -12 101 -17 21 -34 39 -37 39 -3 0 -19 -9 -36 -20z"/>
<path d="M10246 4239 c-21 -17 -24 -24 -15 -35 29 -35 90 -4 69 35 -13 26 -21
26 -54 0z"/>
<path d="M10733 4240 c-27 -11 -39 -50 -24 -79 17 -30 66 -53 109 -49 33 3 37
6 40 33 2 17 8 34 13 40 17 17 9 27 -15 21 -18 -4 -28 0 -40 19 -17 26 -44 31
-83 15z"/>
<path d="M9787 4204 c-36 -19 -33 -52 5 -74 21 -11 32 -12 45 -4 25 16 29 65
7 81 -22 16 -22 16 -57 -3z"/>
<path d="M9440 4132 c-29 -29 -40 -48 -40 -70 0 -64 20 -76 79 -46 22 11 44
14 69 10 104 -19 117 -18 137 4 16 18 17 23 5 30 -8 6 -29 10 -46 10 -20 0
-36 7 -45 20 -8 11 -25 22 -38 25 -13 2 -24 6 -25 7 -23 56 -48 58 -96 10z"/>
<path d="M3140 4093 c-14 -10 -45 -17 -81 -18 -47 -1 -64 -7 -100 -33 -38 -29
-50 -32 -112 -32 -50 0 -79 -5 -106 -20 -20 -11 -62 -29 -93 -40 -59 -22 -72
-42 -46 -68 23 -23 63 -12 131 34 64 44 72 47 140 48 58 2 81 7 118 29 25 15
59 27 75 27 16 0 49 9 72 20 28 12 53 18 69 14 30 -8 46 11 32 38 -12 23 -66
24 -99 1z"/>
<path d="M1872 4091 c-31 -6 -50 -17 -72 -42 -16 -19 -29 -39 -30 -45 0 -21
26 -43 65 -53 62 -17 82 -13 120 20 47 42 50 91 5 114 -16 8 -33 14 -37 14 -4
-1 -27 -5 -51 -8z"/>
<path d="M9895 4060 c-9 -15 6 -80 19 -80 19 0 36 22 36 45 0 35 -39 60 -55
35z"/>
<path d="M10847 4033 c-4 -3 -7 -21 -7 -38 0 -63 57 -75 72 -16 5 18 7 40 4
47 -5 14 -57 20 -69 7z"/>
<path d="M2419 3859 c-10 -20 -9 -25 11 -41 31 -25 45 -18 45 23 0 27 -4 35
-22 37 -14 2 -26 -4 -34 -19z"/>
<path d="M10318 3765 c-13 -15 -58 -45 -100 -66 -43 -22 -78 -45 -78 -52 0 -7
15 -28 34 -46 32 -31 38 -33 79 -27 55 8 74 1 82 -32 21 -83 102 -83 120 0 5
19 27 51 58 80 45 44 49 52 39 73 -16 34 -65 56 -117 54 -35 -2 -50 2 -69 20
l-24 23 -24 -27z"/>
<path d="M10932 3778 c-27 -27 -2 -98 35 -98 22 0 44 39 41 72 -3 29 -7 33
-33 36 -17 2 -36 -3 -43 -10z"/>
<path d="M10653 3663 c-23 -9 -13 -28 34 -68 75 -63 114 -86 137 -83 34 5 32
36 -5 56 -18 9 -54 36 -79 60 -45 40 -60 46 -87 35z"/>
<path d="M10517 3538 c-9 -5 -17 -14 -17 -21 0 -26 61 -85 120 -116 34 -18 76
-46 95 -62 33 -29 65 -38 65 -19 0 32 -38 75 -100 115 -38 24 -76 55 -85 68
-20 31 -56 48 -78 35z"/>
<path d="M8790 3527 c-22 -11 -26 -22 -34 -88 -8 -73 -7 -78 23 -134 17 -32
31 -73 31 -91 0 -28 20 -64 36 -64 3 0 22 9 43 19 43 23 58 17 71 -28 13 -47
-2 -75 -49 -94 -42 -17 -61 -41 -61 -77 0 -12 27 -50 63 -88 35 -37 67 -81 71
-97 4 -17 16 -39 26 -50 9 -11 23 -37 29 -57 14 -41 54 -80 76 -72 8 3 19 20
25 37 14 45 -2 93 -47 139 l-38 39 0 132 c1 73 3 177 5 232 3 96 2 102 -28
160 -18 33 -32 67 -32 75 0 26 -39 79 -72 100 -37 23 -101 26 -138 7z"/>
<path d="M3819 3413 c-62 -49 -163 -133 -225 -188 -61 -55 -125 -108 -142
-117 -17 -9 -52 -44 -78 -78 -32 -41 -57 -63 -75 -67 -18 -3 -56 -36 -106 -89
-224 -239 -229 -247 -197 -292 25 -36 57 -28 114 28 27 27 50 54 50 59 0 6 53
51 118 100 64 49 137 110 162 135 24 25 50 46 56 46 24 0 95 80 119 133 15 34
31 56 44 60 12 3 24 13 28 24 9 25 167 179 202 198 16 8 32 23 36 34 3 11 19
24 36 30 34 12 46 35 29 56 -25 30 -58 15 -171 -72z"/>
<path d="M263 3474 c-25 -11 -38 -11 -57 -3 -53 25 -144 -20 -120 -59 23 -37
57 -43 170 -32 94 10 109 9 124 -5 17 -16 73 -15 133 2 23 6 40 39 32 64 -10
31 -43 38 -103 22 -50 -13 -54 -13 -79 7 -30 23 -55 24 -100 4z"/>
<path d="M738 3455 c-17 -38 3 -75 42 -75 28 0 30 3 30 34 0 60 -50 88 -72 41z"/>
<path d="M9257 3314 c-6 -57 -6 -57 39 -101 37 -37 47 -43 59 -33 8 7 15 27
15 44 0 18 5 37 11 43 7 7 5 15 -6 27 -9 9 -20 29 -24 44 -6 23 -13 27 -48 30
l-40 3 -6 -57z"/>
<path d="M8423 3303 c-39 -44 -39 -45 -13 -68 14 -13 42 -19 111 -23 68 -4 92
-9 96 -20 8 -20 -24 -42 -61 -42 -44 -1 -64 -15 -148 -105 -85 -91 -98 -111
-98 -154 0 -73 74 -93 130 -36 19 19 39 35 44 35 6 0 18 -15 26 -33 11 -22 23
-33 42 -35 22 -3 28 2 38 34 13 40 7 131 -10 148 -5 5 -10 18 -10 27 0 25 91
115 133 133 39 16 54 48 42 85 -5 18 -14 21 -68 21 -83 0 -99 6 -119 41 -15
25 -23 29 -60 29 -37 -1 -48 -6 -75 -37z"/>
<path d="M3446 3304 c-31 -30 -5 -78 40 -72 34 4 49 27 40 61 -5 22 -12 27
-35 27 -16 0 -37 -7 -45 -16z"/>
<path d="M10850 3291 c-14 -27 -14 -29 20 -46 43 -22 69 -19 76 10 10 41 -1
55 -45 55 -30 0 -43 -5 -51 -19z"/>
<path d="M11190 3296 c-19 -5 -38 -14 -41 -19 -9 -14 67 -87 91 -87 30 0 40
29 23 72 -17 43 -27 48 -73 34z"/>
<path d="M3267 3230 c-7 -10 -25 -23 -39 -29 -23 -8 -26 -17 -29 -61 -2 -28 0
-58 4 -66 34 -61 164 81 137 151 -12 31 -52 34 -73 5z"/>
<path d="M9846 3077 c-21 -15 -33 -91 -17 -101 11 -7 51 10 63 28 27 40 -10
99 -46 73z"/>
<path d="M8700 3065 c-7 -9 -13 -56 -14 -122 -2 -79 -7 -117 -19 -140 -21 -40
-21 -62 0 -154 22 -101 67 -144 107 -103 20 20 20 56 -1 159 -15 75 -16 90 -2
169 15 85 11 110 -16 100 -20 -8 -27 13 -16 51 8 30 7 37 -9 45 -13 7 -21 6
-30 -5z"/>
<path d="M1040 3047 c-89 -20 -90 -23 -62 -130 18 -67 25 -70 129 -64 52 4
103 13 115 21 13 7 61 19 108 26 51 7 96 20 112 31 15 11 39 24 53 29 32 12
42 37 23 56 -12 13 -34 13 -138 5 -114 -9 -126 -9 -155 9 -40 25 -117 32 -185
17z"/>
<path d="M9887 2883 c-12 -12 -7 -119 6 -137 7 -10 22 -16 33 -14 15 3 19 12
18 49 0 74 -31 128 -57 102z"/>
<path d="M2797 2854 c-3 -3 -19 -7 -36 -9 -21 -1 -54 -25 -120 -86 -78 -72
-91 -88 -91 -116 0 -34 -12 -47 -45 -48 -13 0 -21 -8 -23 -24 -7 -43 27 -44
118 -3 38 18 238 215 250 247 4 11 5 26 3 33 -5 12 -45 17 -56 6z"/>
<path d="M10695 2778 c-11 -6 -26 -14 -34 -18 -33 -15 -35 -37 -7 -64 33 -30
56 -23 76 23 21 52 5 81 -35 59z"/>
<path d="M12218 2764 c-46 -24 -50 -45 -18 -81 25 -27 30 -30 51 -19 31 15 51
58 43 91 -7 29 -34 32 -76 9z"/>
<path d="M1498 2758 c-33 -11 -35 -28 -9 -52 18 -16 20 -16 40 10 38 48 26 63
-31 42z"/>
<path d="M1956 2755 c-52 -18 -65 -33 -87 -97 -17 -50 -17 -55 -1 -82 30 -51
47 -55 84 -19 24 23 45 32 78 36 99 10 216 40 266 68 69 39 82 55 62 75 -11
12 -47 16 -156 18 -78 2 -145 6 -149 9 -10 11 -55 7 -97 -8z"/>
<path d="M1235 2689 c-16 -5 -40 -7 -52 -4 -25 6 -53 -18 -53 -46 0 -34 47
-36 109 -3 84 43 81 79 -4 53z"/>
<path d="M5202 2688 c-17 -17 -15 -27 15 -71 18 -26 30 -58 33 -91 5 -55 -1
-50 105 -76 88 -22 107 -23 116 -9 15 24 10 69 -8 76 -10 3 -35 21 -56 40 -20
18 -42 33 -47 33 -5 0 -18 16 -27 36 -13 25 -29 40 -53 49 -19 7 -42 15 -50
19 -9 3 -21 1 -28 -6z"/>
<path d="M5848 2659 c-25 -14 -40 -46 -33 -70 6 -17 12 -19 38 -13 45 9 57 22
57 60 0 29 -4 34 -22 34 -13 0 -31 -5 -40 -11z"/>
<path d="M6576 2651 c-22 -25 -13 -41 22 -41 39 0 55 14 47 39 -8 27 -46 28
-69 2z"/>
<path d="M3807 2637 c-16 -12 -47 -26 -70 -32 -38 -9 -42 -13 -40 -38 3 -48
19 -57 94 -57 67 0 70 1 88 31 10 17 28 37 40 45 29 21 27 31 -11 54 -42 25
-66 24 -101 -3z"/>
<path d="M6791 2615 c-78 -17 -156 -55 -156 -75 0 -12 16 -15 80 -15 l80 0 -3
-30 c-2 -17 -14 -48 -26 -70 -36 -63 -37 -74 -16 -95 16 -16 34 -20 85 -20 79
0 91 15 80 94 -4 28 -7 71 -6 96 0 42 -32 131 -47 129 -4 0 -36 -7 -71 -14z"/>
<path d="M4941 2604 c-24 -17 -24 -28 1 -94 25 -66 56 -100 92 -100 41 0 53
14 62 69 6 39 4 45 -27 77 -32 34 -78 64 -96 64 -5 0 -19 -7 -32 -16z"/>
<path d="M2127 2543 c-4 -3 -7 -15 -7 -26 0 -10 -9 -30 -20 -44 -37 -47 -21
-93 31 -93 43 0 110 96 95 135 -9 25 -82 46 -99 28z"/>
<path d="M9140 2531 c-5 -11 -10 -27 -10 -35 0 -19 96 -213 110 -221 38 -23
110 65 110 134 0 32 -39 81 -64 81 -6 0 -29 14 -50 30 -46 35 -81 38 -96 11z"/>
<path d="M235 2475 c-38 -13 -83 -24 -98 -25 -30 0 -121 -77 -132 -111 -9 -27
33 -148 61 -176 16 -16 35 -23 61 -23 21 0 55 -5 77 -9 36 -9 41 -7 82 31 32
30 44 48 44 69 0 16 5 29 10 29 6 0 16 12 22 28 7 15 23 37 37 48 24 20 24 24
13 62 -16 52 -58 102 -85 102 -12 0 -53 -11 -92 -25z"/>
<path d="M7890 2413 c0 -62 13 -119 33 -150 5 -7 24 -13 43 -13 37 0 37 -3 18
60 -3 13 -13 30 -20 38 -8 7 -14 30 -14 50 0 41 -23 82 -46 82 -11 0 -14 -15
-14 -67z"/>
<path d="M3767 2423 c-12 -12 -7 -50 7 -63 8 -6 25 -10 38 -8 19 2 24 10 26
41 3 36 2 37 -31 37 -18 0 -37 -3 -40 -7z"/>
<path d="M5987 2392 c-15 -15 -27 -35 -27 -44 0 -33 70 -63 85 -38 11 17 -6
110 -19 110 -7 0 -24 -13 -39 -28z"/>
<path d="M8260 2400 c-11 -11 -20 -31 -20 -44 0 -14 -5 -28 -10 -31 -6 -4 -22
-28 -35 -55 -20 -40 -25 -64 -25 -124 0 -65 3 -77 20 -86 32 -17 56 17 70 98
13 82 28 101 65 84 42 -19 53 -7 51 55 -1 44 -6 59 -21 67 -11 6 -24 17 -28
23 -4 7 -17 17 -27 23 -15 8 -24 6 -40 -10z"/>
<path d="M10654 2391 c-40 -24 -43 -30 -49 -85 -4 -42 -1 -48 39 -92 50 -56
63 -55 106 13 41 65 40 100 -8 146 -44 43 -47 43 -88 18z"/>
<path d="M4450 2378 c0 -7 5 -20 10 -28 12 -20 33 0 24 23 -7 20 -34 23 -34 5z"/>
<path d="M8980 2351 c-5 -11 -10 -32 -10 -48 0 -15 -9 -52 -20 -81 -29 -76
-26 -172 5 -172 9 0 16 17 19 48 12 100 26 154 46 179 22 29 26 63 8 81 -18
18 -36 15 -48 -7z"/>
<path d="M4944 2317 c-3 -9 -4 -30 -2 -49 2 -27 8 -34 29 -36 32 -4 51 17 52
60 2 31 0 33 -36 36 -26 2 -39 -1 -43 -11z"/>
<path d="M4560 2237 c0 -19 7 -40 15 -47 22 -18 57 15 53 49 -2 21 -9 27 -35
29 -31 3 -33 2 -33 -31z"/>
<path d="M9393 2263 c-7 -3 -13 -11 -13 -19 0 -7 -8 -19 -18 -25 -22 -14 -18
-50 8 -74 28 -26 54 -15 64 26 15 60 -5 104 -41 92z"/>
<path d="M6900 2225 c-10 -12 -9 -20 4 -40 21 -32 43 -32 58 1 11 22 10 28 -7
40 -24 18 -39 18 -55 -1z"/>
<path d="M1840 2196 c-5 -14 -16 -26 -24 -26 -21 0 -76 -70 -76 -97 0 -33 18
-28 60 17 21 23 46 40 58 40 30 0 64 36 60 63 -2 17 -11 23 -36 25 -27 3 -34
-1 -42 -22z"/>
<path d="M7335 2180 c-7 -12 54 -80 71 -80 8 0 17 7 21 16 10 26 -78 87 -92
64z"/>
<path d="M5918 2154 c-32 -17 -34 -26 -13 -44 8 -7 15 -19 15 -26 0 -19 47
-29 65 -14 21 17 20 86 -1 94 -23 9 -36 7 -66 -10z"/>
<path d="M3495 2101 l-61 -28 -18 -79 c-9 -44 -15 -91 -11 -105 8 -33 -32
-125 -84 -194 -51 -67 -108 -96 -265 -134 -195 -48 -236 -78 -236 -176 0 -60
23 -112 55 -127 34 -15 141 5 171 33 11 10 30 19 41 19 28 0 293 199 371 280
116 119 139 145 147 170 4 13 23 47 41 73 41 59 45 113 14 202 -36 104 -63
115 -165 66z"/>
<path d="M5182 2073 c-14 -27 -23 -88 -16 -107 10 -27 53 -20 65 11 23 62 -22
149 -49 96z"/>
<path d="M10560 2046 c-7 -9 -18 -16 -25 -16 -31 0 -35 -84 -4 -101 18 -9 26
-5 65 37 53 57 56 87 8 92 -19 2 -36 -3 -44 -12z"/>
<path d="M7834 1936 c-11 -29 1 -61 23 -64 26 -4 47 29 38 58 -7 24 -53 28
-61 6z"/>
<path d="M9808 1836 c-11 -26 -5 -56 12 -56 15 0 34 46 27 64 -9 23 -26 19
-39 -8z"/>
<path d="M5942 1798 c-7 -7 -12 -39 -12 -75 0 -59 2 -63 29 -77 26 -14 31 -13
62 9 56 40 59 44 59 85 0 34 -3 40 -20 40 -11 0 -23 7 -26 15 -7 18 -74 21
-92 3z"/>
<path d="M7919 1734 c-16 -20 0 -49 27 -49 14 0 20 8 22 33 3 26 0 32 -16 32
-11 0 -25 -7 -33 -16z"/>
<path d="M4745 1686 c-9 -13 -25 -26 -35 -29 -30 -8 -35 -35 -11 -61 11 -12
21 -34 21 -47 0 -28 37 -69 62 -69 18 0 28 20 28 56 0 14 7 39 16 56 15 29 15
33 -6 74 -25 50 -51 57 -75 20z"/>
<path d="M1245 1640 c-36 -8 -205 -92 -260 -130 -22 -15 -60 -37 -84 -50 -53
-26 -101 -72 -101 -95 0 -22 24 -66 48 -88 19 -17 22 -18 53 -2 18 10 53 37
79 61 26 24 63 51 84 59 20 9 53 33 72 55 20 22 51 45 70 52 19 6 34 16 34 20
0 4 16 25 35 47 53 59 42 86 -30 71z"/>
<path d="M1558 1559 c-47 -27 -41 -89 7 -89 29 0 48 30 43 68 -3 29 -23 38
-50 21z"/>
<path d="M3836 1548 c-14 -52 0 -74 37 -57 49 22 47 79 -3 79 -20 0 -29 -6
-34 -22z"/>
<path d="M7221 1525 c-18 -8 -48 -15 -66 -15 -18 0 -49 -7 -69 -15 -28 -12
-36 -21 -36 -41 0 -30 41 -74 70 -74 29 0 25 -29 -5 -35 -14 -3 -36 -7 -49
-10 -29 -6 -41 -36 -27 -63 5 -10 28 -26 50 -36 36 -17 41 -17 62 -2 13 9 33
16 44 16 11 0 34 16 51 37 17 20 35 33 41 30 22 -14 74 -160 114 -319 39 -157
92 -298 112 -298 12 0 6 26 -27 115 -14 39 -34 123 -46 188 -12 65 -34 157
-50 205 -15 48 -32 105 -36 127 -7 43 -30 95 -42 95 -4 0 -13 4 -21 9 -12 8
-10 15 12 40 14 18 24 38 21 46 -8 19 -58 19 -103 0z"/>
<path d="M4120 1487 c-31 -58 -23 -97 20 -97 36 0 50 23 50 79 0 30 -5 43 -19
51 -27 14 -26 15 -51 -33z"/>
<path d="M7858 1501 c-35 -34 -19 -67 27 -55 28 7 32 29 11 57 -16 21 -16 20
-38 -2z"/>
<path d="M6352 1437 c-28 -30 -52 -89 -52 -130 0 -85 54 -184 96 -175 17 3 68
66 100 123 23 40 23 131 1 173 -16 30 -21 32 -71 32 -42 0 -57 -5 -74 -23z"/>
<path d="M4955 1373 c-14 -21 -25 -50 -25 -65 0 -15 -4 -29 -9 -32 -14 -9 -35
-169 -27 -210 9 -47 43 -71 91 -62 48 9 59 34 51 115 -4 36 -6 117 -6 179 l2
112 -26 0 c-18 0 -32 -11 -51 -37z"/>
<path d="M7571 1301 c-26 -50 -27 -71 -3 -71 30 0 54 34 50 71 -4 47 -24 47
-47 0z"/>
<path d="M5253 1295 c-37 -16 -49 -56 -40 -133 12 -111 120 -108 155 4 9 30 8
44 -4 73 -29 70 -52 82 -111 56z"/>
<path d="M2426 1207 c-95 -57 -116 -78 -116 -121 0 -69 50 -73 173 -16 47 22
99 43 116 46 58 12 72 56 34 106 -26 33 -32 36 -77 34 -39 -1 -65 -11 -130
-49z"/>
<path d="M3030 1191 c0 -4 -13 -25 -30 -46 -36 -46 -37 -49 -5 -80 32 -33 41
-32 80 10 38 39 53 88 35 110 -13 16 -80 21 -80 6z"/>
<path d="M10044 1068 c-9 -18 -28 -43 -43 -55 l-26 -21 25 -27 c36 -39 57 -48
125 -57 33 -4 78 -10 101 -14 34 -5 45 -2 68 18 l27 23 -31 48 c-21 30 -41 49
-58 53 -26 6 -68 22 -125 50 -40 19 -44 18 -63 -18z"/>
<path d="M7692 798 c-20 -20 -15 -76 9 -88 11 -7 27 -9 35 -6 21 8 17 63 -6
86 -24 24 -23 23 -38 8z"/>
<path d="M9949 791 c-20 -16 -22 -22 -12 -44 23 -50 87 -42 81 11 -2 14 -12
31 -24 39 -19 12 -24 11 -45 -6z"/>
<path d="M10192 738 c-17 -17 -15 -35 4 -42 8 -3 13 -10 9 -16 -9 -15 13 -50
32 -50 9 0 34 8 55 17 45 20 49 43 13 78 -27 27 -91 35 -113 13z"/>
<path d="M2848 109 c-41 -34 -49 -67 -22 -93 38 -38 104 -1 104 59 0 27 -25
66 -41 65 -2 -1 -21 -14 -41 -31z"/>
</g>
</svg>
